<?xml version="1.0" encoding="UTF-8"?>
<svg width="56px" height="56px" viewBox="0 0 56 56" version="1.1" xmlns="http://www.w3.org/2000/svg" xmlns:xlink="http://www.w3.org/1999/xlink">
    <!-- Generator: Sketch 52 (66869) - http://www.bohemiancoding.com/sketch -->
    <title>balsamiq</title>
    <desc>Created with Sketch.</desc>
    <defs>
        <polygon id="path-1" points="0 0.142105263 49.9157895 0.142105263 49.9157895 52.6315789 0 52.6315789"></polygon>
    </defs>
    <g id="balsamiq" stroke="none" stroke-width="1" fill="none" fill-rule="evenodd">
        <g id="Group-11" transform="translate(3.000000, 1.538012)">
            <g id="Group-10">
                <g id="Group-3" transform="translate(0.000000, 0.150292)">
                    <mask id="mask-2" fill="white">
                        <use xlink:href="#path-1"></use>
                    </mask>
                    <g id="Clip-2"></g>
                    <path d="M24.4894152,49.1544444 C25.2990643,49.0684795 26.8747953,48.9339766 28.4411696,48.7292982 C32.044386,48.2588304 35.2397076,46.8132164 37.9119298,44.3737427 C43.6233333,39.16 46.3630994,32.6097076 46.39,24.9035673 C46.4005263,21.9632164 45.7639766,19.1594152 44.5470175,16.4836842 C42.6283041,12.2652632 39.3695322,9.43894737 35.2338596,7.53426901 C34.9861988,7.42023392 34.5993567,7.40385965 34.3581287,7.51614035 C33.2227485,8.04538012 32.1724561,8.02608187 31.1224561,7.28953216 C30.6283041,6.94333333 30.0502339,6.71877193 29.5174854,6.42578947 C27.0435088,5.06467836 24.4364912,4.36877193 21.5882456,4.74157895 C19.0680702,5.07111111 16.6338596,5.69684211 14.2239181,6.51116959 C10.6876608,7.70619883 8.26865497,10.0702339 6.57684211,13.3029825 C5.0025731,16.3111696 4.10081871,19.5216959 3.58619883,22.8640936 C2.81251462,27.888655 2.93385965,32.8602924 4.33883041,37.7705263 C5.39233918,41.4515205 7.50666667,44.2711111 10.9198246,46.1228655 C14.9239181,48.2953801 19.2309357,49.0734503 24.4894152,49.1544444 M25.9923392,1.72140351 C25.2297661,1.17520468 25.6022807,0.91877193 26.0826901,0.669356725 C27.2180702,0.0798830409 28.288538,-0.101695906 29.5283041,0.576081871 C31.6578363,1.73923977 33.9449708,2.62023392 36.0464327,3.82754386 C41.8087135,7.13894737 46.2487719,11.6772515 48.4891228,18.0684795 C50.2791813,23.1746199 50.3046199,28.3564912 49.0125146,33.5988889 C48.2300585,36.7734503 46.8788889,39.6661404 44.8891228,42.2097076 C42.8192398,44.8550292 40.1987719,46.9231579 37.2566667,48.5623392 C31.4516959,51.7962573 25.2239181,53.1044444 18.6242105,52.4804678 C13.809883,52.0252047 9.43678363,50.4196491 5.85374269,47.0252047 C3.73619883,45.0190643 2.35783626,42.5564912 1.47450292,39.8088304 C-0.190994152,34.6290058 -0.285146199,29.338655 0.401111111,23.9915789 C0.842923977,20.5471345 1.69994152,17.2187719 3.0019883,14.0009357 C4.36894737,10.6222807 6.2148538,7.58076023 9.0902924,5.25269006 C10.5683626,4.05619883 12.2771345,3.35649123 14.1379532,3.1354386 C17.662807,2.71643275 21.1999415,2.39654971 24.7312281,2.03192982 C25.1014035,1.99362573 25.468655,1.92842105 25.837076,1.87608187 C25.8888304,1.82432749 25.9405848,1.77315789 25.9923392,1.72140351" id="Fill-1" fill="#3E3E3E" mask="url(#mask-2)"></path>
                </g>
                <path d="M24.749269,39.5522515 C21.0048246,39.4268129 17.4890351,38.6142398 14.4168129,36.3981579 C11.9425439,34.6133626 10.4138889,32.2583918 10.249269,29.1358772 C10.2390351,28.9428947 10.2147661,28.7273977 10.2855263,28.5595614 C10.3519006,28.4025439 10.522076,28.2145322 10.672076,28.1885088 C10.8153509,28.1639474 11.0673977,28.289386 11.1387427,28.4212573 C11.3343567,28.7814912 11.4498538,29.1841228 11.6147661,29.562193 C12.5504386,31.7089766 14.2790936,33.0832456 16.2761696,34.1060526 C20.5399123,36.2896784 25.0115497,36.879152 29.6469298,35.4803216 C32.6019006,34.5885088 35.0016082,32.8800292 36.7884503,30.3347076 C36.9270468,30.1373392 37.2288012,30.0545906 37.4545322,29.9186257 C37.5331871,30.1937719 37.7173977,30.4867544 37.6741228,30.7411404 C37.0399123,34.4873392 34.7814327,36.9019591 31.3586257,38.3352924 C29.2378655,39.2235965 27.0074561,39.5271053 24.749269,39.5522515" id="Fill-4" fill="#3E3E3E"></path>
                <path d="M34.8848246,21.8083626 C34.8354094,23.2574854 33.685117,24.4416959 32.3745906,24.3931579 C31.3479825,24.3548538 30.5213743,23.1849708 30.5509064,21.8112865 C30.5780994,20.524152 31.4971053,19.6703509 32.8140643,19.7080702 C33.9494444,19.7405263 34.9213743,20.7264912 34.8848246,21.8083626" id="Fill-6" fill="#3E3E3E"></path>
                <path d="M13.8752924,21.6191813 C13.8761696,20.2288304 14.6501462,19.3776608 15.9095029,19.382924 C17.1916667,19.3881871 18.1323099,20.4753216 18.129386,21.9484211 C18.1267544,23.2472515 17.4393275,24.0308772 16.3089181,24.0238596 C14.8226608,24.0142105 13.8744152,23.077076 13.8752924,21.6191813" id="Fill-8" fill="#3E3E3E"></path>
            </g>
        </g>
    </g>
</svg>