<?xml version="1.0" encoding="UTF-8"?>
<svg width="57px" height="57px" viewBox="0 0 57 57" version="1.1" xmlns="http://www.w3.org/2000/svg" xmlns:xlink="http://www.w3.org/1999/xlink">
    <!-- Generator: Sketch 52 (66869) - http://www.bohemiancoding.com/sketch -->
    <title>invision</title>
    <desc>Created with Sketch.</desc>
    <g id="invision" stroke="none" stroke-width="1" fill="none" fill-rule="evenodd" transform="translate(0.929688, 0.570312)">
        <g transform="translate(3.000000, 3.000000)">
            <path d="M45.4673828,0 L4.53261719,0 C2.02929688,0 0,2.02929688 0,4.53261719 L0,45.4673828 C0,47.9707031 2.02929688,50 4.53261719,50 L45.4673828,50 C47.9707031,50 50,47.9707031 50,45.4673828 L50,4.53261719 C50,2.02929688 47.9707031,0 45.4673828,0" id="Path" fill="#FF3465"></path>
            <path d="M16.7099609,15.7314453 C18.3720703,15.7314453 19.7644531,14.4287109 19.7644531,12.7212891 C19.7644531,11.0150391 18.3720703,9.7125 16.7099609,9.7125 C15.0478516,9.7125 13.6558594,11.0150391 13.6558594,12.7212891 C13.6558594,14.4285156 15.0478516,15.7314453 16.7099609,15.7314453 M10.3767578,31.8486328 C10.1972656,32.6123047 10.1072266,33.4369141 10.1072266,34.1095703 C10.1072266,36.7601563 11.5445313,38.5197266 14.5990234,38.5197266 C17.1322266,38.5197266 19.1859375,37.0154297 20.6646484,34.5863281 L19.7617188,38.2099609 L24.7919922,38.2099609 L27.6669922,26.6789063 C28.3857422,23.759375 29.778125,22.2439453 31.8894531,22.2439453 C33.5513672,22.2439453 34.584375,23.2775391 34.584375,24.9837891 C34.584375,25.478125 34.5394531,26.0166016 34.3597656,26.6007813 L32.8773437,31.9009766 C32.6527344,32.6646484 32.5632812,33.4287109 32.5632812,34.146875 C32.5632812,36.6630859 34.0451172,38.5035156 37.1445312,38.5035156 C39.7947266,38.5035156 41.9056641,36.7974609 43.0736328,32.7097656 L41.0974609,31.946875 C40.1091797,34.6853516 39.2556641,35.1804688 38.5818359,35.1804688 C37.9080078,35.1804688 37.5486328,34.7316406 37.5486328,33.8337891 C37.5486328,33.4294922 37.6388672,32.9808594 37.7732422,32.440625 L39.2109375,27.2769531 C39.5701172,26.0644531 39.7050781,24.9892578 39.7050781,24.0013672 C39.7050781,20.1384766 37.3691406,18.1224609 34.5394531,18.1224609 C31.8894531,18.1224609 29.1941406,20.5128906 27.846875,23.0287109 L28.8347656,18.5130859 L21.1542969,18.5130859 L20.0761719,22.4904297 L23.6697266,22.4904297 L21.4568359,31.3498047 C19.7191406,35.2126953 16.5271484,35.2753906 16.1265625,35.1857422 C15.46875,35.0373047 15.0480469,34.7875 15.0480469,33.9328125 C15.0480469,33.4396484 15.1378906,32.73125 15.3625,31.8771484 L18.7316406,18.5130859 L10.1972656,18.5130859 L9.11914063,22.4904297 L12.6673828,22.4904297 L10.3769531,31.8486328" id="Shape" fill="#FFFFFF" fill-rule="nonzero"></path>
        </g>
    </g>
</svg>