<?xml version="1.0" encoding="utf-8"?>
<!-- Generator: Adobe Illustrator 22.1.0, SVG Export Plug-In . SVG Version: 6.00 Build 0)  -->
<svg version="1.1" id="Layer_1" xmlns="http://www.w3.org/2000/svg" xmlns:xlink="http://www.w3.org/1999/xlink" x="0px" y="0px"
	 viewBox="0 0 160 160" style="enable-background:new 0 0 160 160;" xml:space="preserve">
<style type="text/css">
	.st0{fill:#FFFFFF;}
	.st1{fill:#4AB1E5;}
	.st2{fill:none;stroke:#000000;stroke-width:3;stroke-linecap:round;}
	.st3{fill:#C7C6C8;}
	.st4{fill:#A9A5A4;}
	.st5{fill:#EDEEEF;}
	.st6{fill:#D8D6D6;}
	.st7{opacity:0.5;}
	.st8{fill:url(#Shape_22_);}
	.st9{fill:#FFFFFF;stroke:#000000;stroke-width:3;}
	.st10{stroke:#000000;}
</style>
<g id="thumbnail">
	<g id="Group-2" transform="translate(126.000000, 127.000000)">
		<g id="me_body">
			<g id="body" transform="translate(32.000000, 0.000000)">
				<g id="Group" transform="translate(32.000000, 57.000000)">
					<path id="Shape" class="st0" d="M-110.6-96c-4.3,0-7.8-3.5-7.8-7.8v-6.8c0-4.3,3.5-7.8,7.8-7.8h0.8c4.3,0,7.8,3.5,7.8,7.8v6.8
						c0,4.3-3.5,7.8-7.8,7.8H-110.6z"/>
					<path id="Shape_1_" d="M-109.8-116.5c3.3,0,6,2.7,6,6v6.8c0,3.3-2.7,6-6,6h-0.8c-3.3,0-6-2.7-6-6v-6.8c0-3.3,2.7-6,6-6H-109.8
						 M-109.8-120.1h-0.8c-5.2,0-9.5,4.3-9.5,9.5v6.8c0,5.2,4.3,9.5,9.5,9.5h0.8c5.2,0,9.5-4.3,9.5-9.5v-6.8
						C-100.2-115.8-104.5-120.1-109.8-120.1"/>
				</g>
				<path id="Shape_2_" class="st0" d="M-39.5-28.1c0,18.8-17.1,18.8-38.4,18.8c-21.1,0-38.4-1.2-38.4-18.8
					c0-8.7,11.1-16.1,27.6-18.2c0.9-0.1,1.6,0.3,2.2,1.2c1.2,2.6,3.1,5.7,8.6,5.7c5.8-0.1,7.6-3.6,8.3-5.5c0.4-1,1.2-1.5,2.2-1.4
					C-50.7-44.3-39.5-36.9-39.5-28.1"/>
				<path id="Shape_3_" d="M-67.6-46.4c0.1,0,0.2,0,0.2,0c16.7,2.1,27.9,9.4,27.9,18.2c0,18.8-17.1,18.8-38.4,18.8
					c-21.1,0-38.4-1.2-38.4-18.8c0-8.7,11.1-16.1,27.6-18.2c0.1,0,0.2,0,0.3,0c0.7,0,1.4,0.4,1.8,1.2c1.2,2.5,3.1,5.7,8.5,5.7h0.1
					c5.8-0.1,7.6-3.6,8.3-5.5C-69.2-45.9-68.5-46.4-67.6-46.4 M-67.6-51.2c-2.9,0-4.1,1.7-5.2,4.6c-0.5,1.2-2.3,3.8-5,3.8H-78
					c-2.5,0-4.7-1.9-5.7-4.1c-1.1-2.5-2.1-4.2-4.6-4.2c-0.3,0-0.6,0-0.8,0.1c-19.3,2.5-31.8,11.4-31.8,22.9c0,10.2,4.8,17,14.4,20.4
					c7.9,2.9,18.6,3.1,28.7,3.1c10.8,0,20.9,0,28.6-2.6c9.6-3.3,14.5-10.3,14.5-20.9c0-11.6-12.6-20.6-32.1-23
					C-67.1-51.1-67.3-51.2-67.6-51.2"/>
				<g id="Group-3" transform="translate(9.000000, 0.000000)">
					<g id="me_head">
						<path id="Shape_4_" class="st0" d="M-111.2-67.6c-4,0-7.3-2.9-7.3-6.5s3.3-6.5,7.3-6.5c4,0,7.3,2.9,7.3,6.5
							S-107.2-67.6-111.2-67.6"/>
						<path id="left_ear" d="M-111.2-78.7c3,0,5.4,2.1,5.4,4.6s-2.5,4.6-5.4,4.6c-3,0-5.4-2.1-5.4-4.6S-114.3-78.7-111.2-78.7
							 M-111.2-82.3c-5,0-9,3.7-9,8.2s4.1,8.2,9,8.2c5,0,9-3.7,9-8.2S-106.3-82.3-111.2-82.3"/>
						<path id="Shape_5_" class="st0" d="M-62.8-67.6c-4,0-7.3-2.9-7.3-6.5s3.3-6.5,7.3-6.5s7.3,2.9,7.3,6.5S-58.8-67.6-62.8-67.6"
							/>
						<path id="right_ear" d="M-62.8-78.7c3,0,5.4,2.1,5.4,4.6s-2.5,4.6-5.4,4.6c-3,0-5.4-2.1-5.4-4.6S-65.8-78.7-62.8-78.7
							 M-62.8-82.3c-5,0-9,3.7-9,8.2s4.1,8.2,9,8.2c5,0,9-3.7,9-8.2S-57.8-82.3-62.8-82.3"/>
						<path id="jaw_1_" class="st0" d="M-87.1-50.3c-14,0-25.3-11.4-25.3-25.3s11.4-25.3,25.3-25.3s25.3,11.4,25.3,25.3
							C-61.9-61.6-73.1-50.3-87.1-50.3"/>
						<path id="jaw" d="M-87.1-98.5c12.6,0,22.9,10.3,22.9,22.9s-10.3,22.9-22.9,22.9S-110-63-110-75.6
							C-110.1-88.2-99.8-98.5-87.1-98.5 M-87.1-103.2c-15.3,0-27.7,12.4-27.7,27.7s12.4,27.7,27.7,27.7s27.7-12.4,27.7-27.7
							S-71.8-103.2-87.1-103.2"/>
						<g id="hair" transform="translate(8.000000, 23.000000)">
							<path id="Shape_6_" class="st1" d="M-109.1-112.2c0,0-2.9,23-7.9,22.1c-4.9-0.8-1.9-11.7-1.9-11.7L-109.1-112.2z"/>
							<path id="Shape_7_" class="st2" d="M-109.1-112.2c0,0-2.9,23-7.9,22.1c-4.9-0.8-1.9-11.7-1.9-11.7L-109.1-112.2z"/>
							<path id="Shape_8_" class="st1" d="M-109.1-113.6c0,0-1.4,9.3,7.1,9.3s31.3,1.4,30.4,12.1c1.5-0.2,3.1-12.6,3.1-12.6
								s-23.9-29.4-38.9-9.6"/>
							<path id="Shape_9_" class="st2" d="M-109.1-113.6c0,0-1.4,9.3,7.1,9.3s31.3,1.4,30.4,12.1c1.5-0.2,3.1-12.6,3.1-12.6
								s-23.9-29.4-38.9-9.6"/>
						</g>
						<g id="beanie" transform="translate(3.000000, 0.000000)">
							<path id="Shape_10_" class="st3" d="M-67.5-93.4c-0.5,0-1.1-0.1-1.6-0.4c-0.1,0-12.4-5-20.3-5s-20.3,5-20.4,5
								c-0.4,0.2-0.9,0.3-1.3,0.3c-0.9,0-1.7-0.4-2.3-1.1c-0.6-0.8-0.9-2.1-0.6-3.2c0.1-1.2,0.7-8.9,3.9-12.9
								c3.6-4.4,11.1-9.4,20.7-9.4c9.5,0,17.9,5.5,20.8,9.5c2.6,3.5,3.3,9.1,3.7,11.8c0.1,0.5,0.1,0.8,0.2,1c0.2,1,0.3,2.4-0.5,3.4
								C-65.9-93.7-66.6-93.4-67.5-93.4"/>
							<path id="Shape_11_" d="M-89.5-118.3c9.1,0,16.8,5.4,19.4,8.8c2.8,3.7,3.2,10.8,3.5,12.1c0.2,1,0.1,2.3-0.8,2.3
								c-0.2,0-0.5-0.1-0.9-0.2c0,0-12.7-5.1-21-5.1s-21,5.1-21,5.1c-0.4,0.1-0.6,0.1-0.8,0.1c-1,0-1.4-1.2-1.1-2.3
								c0,0,0.4-8.2,3.5-12C-105.7-113.3-98.6-118.3-89.5-118.3 M-89.5-121.9c-10.3,0-18.4,5.4-22.2,10.2c-3.5,4.3-4.2,12-4.3,13.7
								c-0.3,1.6,0.1,3.3,1,4.5c0.9,1.1,2.3,1.8,3.7,1.8c0.6,0,1.3-0.1,1.9-0.4c0.1-0.1,12.2-4.9,19.7-4.9c7.3,0,18.8,4.5,19.7,4.9
								c0.8,0.3,1.5,0.5,2.4,0.5c1.3,0,2.7-0.6,3.5-1.6c1-1.2,1.3-3,0.9-4.9c0-0.2-0.1-0.5-0.1-0.9c-0.4-2.9-1.1-8.8-4-12.6
								C-70.2-115.6-78.8-121.9-89.5-121.9"/>
							<path id="Shape_12_" class="st4" d="M-66.6-97.4c-0.3-1.4-0.7-8.4-3.5-12.1c-1.9-2.6-6.9-6.4-13.1-8c1.6,6.1,1.7,12,1.8,18.1
								c6.7,1.5,13,4.1,13,4.1C-66.5-94.5-66.4-96-66.6-97.4"/>
							<path id="Shape_13_" class="st5" d="M-116.5-79.3c-3.5-6.3-1.5-14.1,0.2-16.7c1-1.5,10.5-15,26.3-15
								c13.2,0,23.5,11.2,26.1,15.1c2.8,4.2,3.2,11.7,0.9,15.4l-1.4,2.3l-1.5-2.2c-0.2-0.2-10.7-14.9-23.9-14.9h-0.3
								c-12.9,0-23.2,15.9-23.3,16.1l-1.6,2.6L-116.5-79.3z"/>
							<path id="Shape_14_" d="M-90-109.3c12.5,0,22.3,10.7,24.6,14.3s2.9,10.3,0.8,13.4c0,0-11-15.6-25.3-15.6H-90h-0.1
								c-14.2,0-24.8,16.9-24.8,16.9c-3-5.3-1.3-12.5,0.2-14.9C-111.8-99.5-102.8-109.3-90-109.3 M-90-112.9
								c-16.6,0-26.7,14.2-27.7,15.8c-2.4,3.6-3.9,12.3-0.3,18.6l3,5.2l3.2-5.1c0.1-0.1,9.8-15.2,21.8-15.2h0.1h0.2
								c12.3,0,22.3,13.9,22.4,14.1l3.1,4.4l2.9-4.6c3-4.7,1.9-13-0.9-17.3C-65.4-101.4-75.9-112.9-90-112.9"/>
							<path id="Shape_15_" class="st6" d="M-65.5-95c-1.6-2.5-6.7-8.2-13.7-11.6c0.9,4.2,1.8,8.6,0.9,12.8
								c8.2,4.5,13.6,12.3,13.6,12.3C-62.6-84.7-63.1-91.4-65.5-95"/>
						</g>
					</g>
					<g id="me_eyes" transform="translate(20.000000, 45.000000)">
						<path id="Shape_16_" d="M-115-117.5c0,1.4-1.1,2.5-2.5,2.5c-1.4,0-2.5-1.1-2.5-2.5c0-1.4,1.1-2.5,2.5-2.5
							C-116.2-120-115-118.9-115-117.5"/>
						<path id="Shape_17_" d="M-93.9-117.5c0,1.4-1.1,2.5-2.5,2.5c-1.4,0-2.5-1.1-2.5-2.5c0-1.4,1.1-2.5,2.5-2.5
							C-95.1-120-93.9-118.9-93.9-117.5"/>
					</g>
				</g>
			</g>
			<g id="me_halo" transform="translate(0.000000, 21.000000)" class="st7">
				<g id="Group_1_">
					
						<linearGradient id="Shape_22_" gradientUnits="userSpaceOnUse" x1="-349.7818" y1="325.5865" x2="-349.7818" y2="324.6092" gradientTransform="matrix(146.2 0 0 -61.5 51092.1055 19919.0996)">
						<stop  offset="0" style="stop-color:#4AB1E5;stop-opacity:0"/>
						<stop  offset="1" style="stop-color:#4AB1E5"/>
					</linearGradient>
					<polygon id="Shape_18_" class="st8" points="4.3,-57.6 29,-120.7 -121,-120.7 -96.3,-57.6 					"/>
				</g>
			</g>
		</g>
	</g>
	<g id="Group-4" transform="translate(147.000000, 210.000000)">
		<path id="Shape_19_" class="st9" d="M-13.3-65.9c0,2.2-1.5,3.8-3.5,3.8h-100.3c-1.9,0-3.6-1.7-3.6-3.8v-49.9
			c0-2.2,1.6-3.8,3.6-3.8h100.2c1.9,0,3.6,1.7,3.6,3.8V-65.9z"/>
		<path id="Shape_20_" d="M-59.4-85.9c-0.3,0.6-0.6,1.1-0.9,1.6c-0.5,0.7-0.9,1.2-1.2,1.4c-0.5,0.4-1,0.6-1.5,0.7
			c-0.4,0-0.8-0.1-1.4-0.3c-0.5-0.2-1-0.3-1.5-0.3c-0.5,0-1,0.1-1.5,0.3c-0.5,0.2-1,0.3-1.3,0.3c-0.5,0-1-0.2-1.5-0.7
			c-0.3-0.3-0.7-0.8-1.2-1.5c-0.5-0.7-1-1.6-1.3-2.7c-0.4-1.1-0.5-2.2-0.5-3.2c0-1.1,0.2-2.2,0.7-3c0.4-0.7,0.9-1.2,1.5-1.6
			c0.6-0.4,1.3-0.6,2.2-0.6c0.4,0,0.9,0.1,1.6,0.4c0.7,0.2,1.1,0.4,1.3,0.4c0.1,0,0.6-0.1,1.4-0.4c0.8-0.3,1.4-0.4,1.9-0.3
			c1.4,0.1,2.6,0.7,3.3,1.7c-1.3,0.8-1.9,1.8-1.9,3.3c0,1.1,0.4,2.1,1.2,2.8c0.3,0.3,0.7,0.6,1.2,0.8
			C-59.2-86.4-59.3-86.2-59.4-85.9z M-62.8-99.1c0,0.8-0.3,1.6-0.9,2.5c-0.7,0.9-1.6,1.4-2.7,1.3c0-0.1,0-0.2,0-0.3
			c0-0.8,0.4-1.7,1-2.5c0.3-0.4,0.7-0.7,1.2-0.9c0.5-0.2,0.9-0.4,1.4-0.4C-62.8-99.3-62.8-99.2-62.8-99.1z"/>
		<path id="Shape_21_" class="st10" d="M-15.4-56h-103.3c-1.1,0-2.1-0.9-2.1-2.1c0-1.1,0.9-2.1,2.1-2.1h103.3c1.1,0,2.1,0.9,2.1,2.1
			C-13.3-56.9-14.2-56-15.4-56z"/>
	</g>
</g>
</svg>
