<?xml version="1.0" standalone="no"?>
<!DOCTYPE svg PUBLIC "-//W3C//DTD SVG 20010904//EN"
 "http://www.w3.org/TR/2001/REC-SVG-20010904/DTD/svg10.dtd">
<svg version="1.0" xmlns="http://www.w3.org/2000/svg"
 width="700.000000pt" height="700.000000pt" viewBox="0 0 700.000000 700.000000"
 preserveAspectRatio="xMidYMid meet">
<metadata>
Created by potrace 1.11, written by Peter Selinger 2001-2013
</metadata>
<g transform="translate(0.000000,700.000000) scale(0.100000,-0.100000)"
fill="#000000" stroke="none">
<path d="M3377 6854 c-1 -1 -58 -5 -126 -8 -69 -4 -127 -9 -130 -10 -3 -2 -35
-7 -71 -11 -51 -5 -255 -44 -373 -70 -11 -2 -79 -22 -152 -44 -439 -132 -852
-359 -1217 -670 -87 -74 -290 -278 -358 -360 -25 -29 -49 -59 -55 -65 -58 -64
-202 -271 -277 -396 -78 -130 -207 -391 -244 -495 -65 -179 -90 -260 -124
-395 -43 -169 -43 -172 -65 -310 -21 -141 -23 -157 -31 -260 -32 -456 23 -899
165 -1325 93 -282 242 -581 409 -825 145 -212 369 -464 568 -642 150 -133 405
-310 599 -415 120 -65 155 -81 333 -160 217 -95 631 -202 887 -228 241 -24
627 -24 765 0 14 2 45 6 70 9 25 3 56 8 70 10 14 3 42 7 62 10 21 3 59 11 85
17 27 6 60 13 75 15 15 3 82 21 150 40 68 19 130 36 138 38 24 7 163 56 185
66 11 5 67 29 125 54 249 105 538 280 765 462 139 112 387 359 492 489 318
397 534 826 653 1293 34 133 67 306 76 394 3 31 7 65 9 75 31 182 24 595 -14
847 -6 34 -12 78 -15 98 -5 29 -37 179 -50 233 -2 6 -6 24 -10 40 -39 151
-100 326 -177 500 -45 104 -60 133 -146 295 -76 141 -275 423 -392 555 -114
128 -316 320 -450 428 -100 80 -317 227 -411 278 -25 13 -47 26 -50 29 -7 7
-184 94 -265 130 -179 80 -448 170 -585 196 -14 3 -41 9 -60 14 -32 8 -52 12
-135 26 -16 3 -37 7 -45 9 -8 2 -40 7 -70 10 -30 3 -66 8 -80 10 -82 12 -492
28 -503 19z"/>
</g>
</svg>
