<?xml version="1.0" standalone="no"?>
<!DOCTYPE svg PUBLIC "-//W3C//DTD SVG 20010904//EN"
 "http://www.w3.org/TR/2001/REC-SVG-20010904/DTD/svg10.dtd">
<svg version="1.0" xmlns="http://www.w3.org/2000/svg"
 width="700.000000pt" height="700.000000pt" viewBox="0 0 700.000000 700.000000"
 preserveAspectRatio="xMidYMid meet">
<metadata>
Created by potrace 1.11, written by Peter Selinger 2001-2013
</metadata>
<g transform="translate(0.000000,700.000000) scale(0.100000,-0.100000)"
fill="#000000" stroke="none">
<path d="M3255 6844 c-250 -24 -410 -52 -614 -105 -775 -200 -1477 -703 -1929
-1380 -295 -442 -467 -909 -544 -1479 -17 -128 -17 -612 0 -750 98 -786 427
-1465 974 -2007 271 -269 552 -470 884 -633 933 -458 2056 -453 2974 13 335
170 592 356 858 620 487 483 809 1089 936 1763 76 403 73 873 -9 1279 -180
894 -722 1678 -1500 2171 -404 256 -855 419 -1360 489 -105 15 -576 28 -670
19z m621 -288 c694 -91 1312 -393 1799 -881 978 -978 1184 -2475 507 -3685
-68 -121 -171 -276 -248 -374 l-46 -59 -32 59 c-192 358 -588 628 -1160 789
-96 28 -399 95 -425 95 -3 0 28 22 69 48 261 168 463 402 591 684 42 93 45 97
81 103 61 11 175 71 230 122 110 103 153 204 146 348 -3 84 -8 101 -42 169
-36 70 -99 143 -164 188 l-23 16 21 68 c11 38 26 115 32 172 24 218 -39 507
-146 667 -28 43 -37 68 -46 136 -29 224 -92 465 -150 579 -79 156 -228 304
-433 429 -481 294 -1012 347 -1511 150 -303 -120 -611 -367 -718 -575 -25 -49
-60 -129 -76 -179 -30 -88 -82 -319 -82 -366 0 -14 -24 -53 -57 -94 -135 -167
-201 -407 -191 -690 4 -88 12 -157 27 -215 l22 -84 -28 -20 c-15 -11 -48 -40
-73 -65 -216 -219 -154 -559 129 -710 31 -16 76 -35 101 -41 45 -11 46 -12 89
-108 117 -257 303 -483 529 -641 48 -33 96 -66 106 -74 17 -12 1 -17 -145 -46
-538 -107 -941 -290 -1212 -551 -104 -99 -168 -181 -222 -282 l-32 -59 -65 88
c-251 340 -418 696 -518 1103 -62 250 -84 442 -84 725 -1 233 9 358 45 553
149 823 631 1554 1329 2017 411 272 892 447 1365 494 61 6 126 13 145 15 71 8
459 -4 566 -18z m-49 -295 c281 -62 547 -202 729 -385 74 -75 98 -106 131
-176 36 -76 67 -167 87 -254 7 -28 4 -26 -61 30 -268 233 -546 387 -828 457
-148 37 -228 47 -385 47 -263 0 -485 -53 -735 -174 -116 -57 -283 -162 -375
-237 -81 -66 -81 -66 -59 -2 39 115 89 200 165 281 199 215 511 377 819 428
117 19 393 11 512 -15z m-172 -492 c292 -36 575 -164 860 -390 155 -122 347
-331 408 -443 87 -158 120 -429 74 -601 -13 -46 -43 -115 -51 -115 -1 0 -40
45 -85 99 -106 129 -305 320 -432 417 -331 250 -602 357 -914 358 -297 1 -565
-106 -866 -345 -167 -133 -357 -336 -491 -523 -29 -41 -56 -75 -59 -75 -4 -1
-18 27 -32 62 -86 215 -78 528 18 717 68 133 289 375 465 507 345 260 735 377
1105 332z m47 -904 c369 -77 770 -368 1089 -791 59 -79 60 -79 53 -133 -3 -30
-8 -59 -10 -66 -3 -6 -24 7 -49 31 -251 241 -756 373 -1550 403 -231 9 -263
16 -324 74 -44 42 -70 102 -78 180 l-6 64 69 45 c220 147 397 207 611 208 72
0 151 -6 195 -15z m-1188 -711 c-59 -281 -149 -548 -212 -624 -20 -24 -21 -24
-40 -7 -33 30 -46 107 -38 231 3 61 12 141 19 177 l13 67 139 145 c77 81 141
144 143 143 2 -2 -9 -62 -24 -132z m361 -19 c86 -38 135 -44 396 -55 345 -14
578 -41 799 -91 362 -83 597 -220 640 -376 7 -23 11 -79 9 -125 -4 -73 -9 -93
-45 -169 -151 -314 -422 -560 -736 -669 -285 -98 -591 -98 -876 0 -272 95
-525 304 -678 560 l-44 75 44 22 c133 68 255 342 346 778 29 138 25 131 63 99
17 -15 55 -37 82 -49z m-939 -293 c1 -75 7 -166 13 -201 6 -36 8 -67 6 -70 -3
-2 -29 20 -59 51 -43 44 -56 65 -65 107 -12 57 -2 127 26 171 18 29 64 80 72
80 3 0 7 -62 7 -138z m3219 63 c44 -70 47 -151 8 -225 -25 -48 -108 -129 -120
-117 -2 3 1 33 6 68 6 35 13 109 16 164 3 55 8 119 11 143 5 42 6 43 27 29 12
-8 35 -36 52 -62z m-1279 -1612 c-14 -122 -95 -236 -204 -286 -40 -19 -65 -22
-162 -22 -102 0 -121 3 -165 25 -109 53 -184 157 -200 278 -8 58 -10 56 66 42
176 -34 432 -32 594 4 33 7 64 14 69 15 5 0 6 -24 2 -56z m-932 -80 c11 -82
80 -207 154 -282 112 -111 240 -161 412 -161 172 0 300 50 411 161 73 73 143
196 155 274 l6 45 47 0 c122 0 505 -91 718 -171 436 -163 709 -378 819 -646
13 -32 24 -68 24 -80 0 -15 -30 -49 -97 -110 -406 -369 -846 -605 -1363 -733
-248 -61 -441 -84 -725 -84 -354 -1 -623 40 -950 145 -417 133 -844 385 -1168
690 l-78 74 20 57 c70 201 283 415 571 575 144 80 423 177 670 234 178 41 265
57 321 58 l46 1 7 -47z"/>
<path d="M2850 3823 c-135 -70 -86 -268 66 -265 173 2 179 257 7 278 -25 3
-50 -1 -73 -13z"/>
<path d="M4044 3826 c-64 -28 -97 -104 -75 -176 30 -100 165 -126 239 -46 27
31 32 43 32 87 0 65 -23 104 -75 129 -48 23 -78 25 -121 6z"/>
</g>
</svg>
