<?xml version="1.0" standalone="no"?>
<!DOCTYPE svg PUBLIC "-//W3C//DTD SVG 20010904//EN"
 "http://www.w3.org/TR/2001/REC-SVG-20010904/DTD/svg10.dtd">
<svg version="1.0" xmlns="http://www.w3.org/2000/svg"
 width="700.000000pt" height="700.000000pt" viewBox="0 0 700.000000 700.000000"
 preserveAspectRatio="xMidYMid meet">
<metadata>
Created by potrace 1.11, written by Peter Selinger 2001-2013
</metadata>
<g transform="translate(0.000000,700.000000) scale(0.100000,-0.100000)"
fill="#000000" stroke="none">
<path d="M3225 6919 c-686 -65 -1268 -288 -1804 -693 -224 -169 -479 -424
-650 -651 -769 -1019 -915 -2343 -387 -3505 253 -558 685 -1068 1191 -1407
1010 -677 2252 -780 3355 -279 220 100 496 267 689 418 165 128 440 403 568
568 407 524 634 1071 719 1735 25 195 25 595 0 790 -109 850 -470 1556 -1091
2132 -451 418 -1016 707 -1630 833 -273 56 -709 83 -960 59z m646 -294 c578
-70 1098 -285 1569 -649 135 -104 432 -401 536 -536 366 -473 576 -982 650
-1575 24 -191 24 -539 0 -730 -74 -593 -284 -1100 -649 -1575 -106 -138 -451
-484 -475 -477 -9 3 -71 28 -137 55 -268 111 -684 222 -927 247 -38 4 -68 10
-68 14 1 3 40 29 88 56 261 151 511 393 672 650 47 76 160 303 160 322 0 7 19
17 43 23 141 37 231 86 324 178 80 80 137 193 155 305 29 192 -57 396 -219
515 -51 38 -63 51 -58 67 43 137 57 211 62 326 13 290 -68 611 -201 799 -29
40 -35 61 -55 200 -36 244 -91 447 -165 612 -110 247 -367 479 -727 657 -575
285 -1204 293 -1774 21 -141 -67 -227 -118 -351 -210 -103 -77 -270 -238 -332
-320 -116 -155 -226 -475 -266 -771 -5 -33 -18 -59 -48 -95 -70 -84 -135 -190
-168 -276 -99 -257 -121 -606 -55 -863 l26 -100 -28 -20 c-15 -11 -52 -43 -83
-72 -185 -173 -225 -451 -95 -668 79 -132 214 -232 369 -275 l59 -16 47 -106
c172 -384 505 -741 858 -918 l54 -28 -54 -7 c-314 -41 -785 -172 -1041 -290
-56 -26 -59 -26 -85 -9 -53 34 -379 371 -458 474 -366 473 -576 982 -650 1575
-24 191 -24 539 0 730 74 593 284 1102 650 1575 104 135 401 432 536 536 521
403 1109 625 1765 668 109 7 419 -4 546 -19z m-81 -565 c36 -6 95 -18 131 -26
l66 -15 21 -87 c11 -48 27 -123 36 -167 28 -152 27 -148 10 -141 -38 14 -177
47 -269 62 -126 21 -414 24 -545 5 -375 -53 -779 -233 -1098 -490 -34 -28 -64
-51 -67 -51 -20 0 53 170 113 264 58 92 224 255 342 338 225 159 514 274 765
307 44 6 94 13 110 15 50 7 316 -3 385 -14z m-40 -630 c418 -68 841 -300 1200
-660 253 -252 332 -381 386 -625 23 -108 24 -333 1 -430 -20 -82 -57 -177 -67
-173 -4 2 -38 41 -75 88 -151 188 -350 384 -545 536 -74 58 -229 163 -277 187
-17 9 -37 23 -45 30 -43 43 -234 128 -397 176 -241 72 -519 80 -742 23 -259
-67 -516 -205 -769 -415 -185 -154 -430 -421 -574 -626 l-59 -84 -30 58 c-69
138 -103 382 -78 570 37 281 110 417 358 675 361 375 794 613 1218 669 44 6
94 13 110 15 49 7 315 -2 385 -14z m-1014 -1960 c95 -46 171 -57 494 -69 986
-37 1615 -231 1758 -540 17 -37 27 -79 30 -125 3 -61 0 -83 -26 -153 -83 -221
-212 -424 -377 -588 -576 -576 -1477 -622 -2116 -107 -141 114 -259 253 -367
432 -56 93 -61 106 -47 115 95 56 161 134 225 262 79 160 160 423 225 728 14
66 27 130 30 143 5 22 7 21 57 -22 28 -25 80 -59 114 -76z m2726 -240 c54 -44
98 -139 98 -210 0 -90 -25 -146 -96 -217 -34 -35 -66 -63 -71 -63 -6 0 -3 39
5 93 8 51 15 166 16 259 0 93 3 168 6 168 3 0 22 -14 42 -30z m-3879 -152 c4
-90 13 -201 21 -248 8 -47 13 -86 11 -88 -1 -2 -27 20 -57 47 -127 116 -138
280 -27 414 17 20 34 37 38 37 5 0 11 -73 14 -162z m1620 -1858 c171 -27 424
-27 592 0 65 10 122 17 125 14 3 -3 -20 -54 -50 -112 -85 -167 -178 -249 -308
-273 -168 -31 -354 85 -460 288 -39 76 -53 121 -33 109 4 -3 65 -15 134 -26z
m-375 -139 c49 -25 68 -47 117 -137 67 -125 165 -224 273 -279 64 -31 182 -55
279 -55 277 0 471 112 576 331 48 102 64 120 118 143 32 13 49 13 165 -4 263
-39 546 -107 757 -183 48 -17 86 -35 84 -40 -10 -30 -357 -212 -546 -286 -371
-146 -739 -215 -1151 -215 -544 0 -1048 128 -1510 383 -153 85 -194 113 -178
122 32 18 321 110 433 137 170 43 431 92 533 101 7 0 29 -8 50 -18z"/>
<path d="M2705 3064 c-45 -23 -66 -45 -86 -89 -24 -51 -23 -89 0 -141 57 -126
231 -139 307 -24 75 113 -14 270 -152 270 -21 0 -52 -7 -69 -16z"/>
<path d="M4165 3066 c-115 -51 -140 -202 -49 -288 89 -83 232 -53 280 59 61
142 -90 292 -231 229z"/>
</g>
</svg>
