<?xml version="1.0" encoding="UTF-8"?>
<svg width="512px" height="512px" viewBox="0 0 512 512" version="1.1" xmlns="http://www.w3.org/2000/svg" xmlns:xlink="http://www.w3.org/1999/xlink">
    <!-- Generator: Sketch 51.2 (57519) - http://www.bohemiancoding.com/sketch -->
    <title>circled</title>
    <desc>Created with Sketch.</desc>
    <defs></defs>
    <g id="circled" stroke="none" stroke-width="1" fill="none" fill-rule="evenodd">
        <g id="Group" transform="translate(11.000000, 11.000000)">
            <path d="M245,0 C109.680808,0 0,109.680808 0,245 C0,293.653535 14.2050505,339.040404 38.6555556,377.151515 C44.6939394,386.605051 51.3757576,395.563636 58.6515152,404.027273 C60.2848485,405.957576 61.9676768,407.838384 63.6505051,409.719192 C70.2333333,416.994949 77.2616162,423.825253 84.6858586,430.259596 C127.647475,467.479798 183.675758,490 245,490 C306.423232,490 362.550505,467.380808 405.561616,430.061616 C412.490909,424.023232 419.073737,417.638384 425.310101,410.857576 C427.438384,408.531313 429.566667,406.155556 431.59596,403.730303 C438.376768,395.811111 444.662626,387.446465 450.354545,378.636364 C475.448485,340.228283 490,294.29202 490,245 C490,109.680808 380.269697,0 245,0" id="Path" stroke="#979797" fill="#FFFFFF" fill-rule="nonzero"></path>
            <path d="M431.59596,371.113131 C427.834343,376.706061 423.775758,382.10101 419.519192,387.29798 C419.123232,386.357576 418.677778,385.466667 418.232323,384.575758 C404.868687,356.858586 376.161616,340.030303 348.444444,330.131313 C331.616162,323.69697 313.79798,320.232323 296.474747,317.262626 C293.109091,316.619192 289.594949,316.074747 286.130303,316.074747 C281.428283,316.074747 276.924242,317.114141 273.212121,320.232323 C267.767677,324.686869 265.787879,332.111111 262.323232,338.050505 C258.858586,344.484848 252.919192,350.919192 245,351.414141 C244.505051,351.463636 244.059596,351.513131 243.564646,351.513131 C236.239394,351.513131 229.953535,344.633333 226.686869,339.040404 C223.222222,333.10101 221.242424,325.676768 215.79798,320.232323 C212.135354,316.866667 207.532323,315.777778 202.681818,315.777778 C199.662626,315.777778 196.544444,316.223232 193.525253,316.767677 C160.363636,322.707071 126.707071,330.626263 98.4949495,350.919192 C87.1111111,359.333333 76.7171717,369.727273 70.2828283,383.090909 C69.8868687,383.932323 69.4909091,384.773737 69.1444444,385.664646 C65.4818182,381.061616 61.9676768,376.359596 58.6515152,371.459596 C50.8808081,360.125253 44.1989899,347.99899 38.6555556,335.278788 C26.5292929,307.660606 19.7979798,277.122222 19.7979798,245 C19.7979798,120.619192 120.619192,19.7979798 245,19.7979798 C369.380808,19.7979798 470.20202,120.619192 470.20202,245 C470.20202,278.013131 463.124242,309.343434 450.354545,337.600101 C445.058586,349.335354 438.772727,360.521212 431.59596,371.113131 M245,470.20202 C182.339394,470.20202 125.717172,444.613131 84.8838384,403.334343 C90.3777778,380.467677 112.89798,364.728283 133.141414,354.383838 C147,347.949495 161.848485,343.494949 176.69697,340.030303 C184.616162,338.050505 192.040404,336.565657 199.959596,335.575758 C206.393939,335.080808 210.353535,337.555556 212.828283,343 C218.421212,355.571717 230.00303,363.243434 242.277778,364.629293 C252.671717,365.817172 263.560606,362.50101 271.727273,353.888889 C276.181818,349.434343 277.666667,344.484848 281.131313,339.535354 C285.090909,334.585859 292.020202,336.070707 297.959596,337.060606 C312.808081,339.535354 328.151515,343 342.505051,348.444444 C365.767677,356.858586 392,370.717172 402.888889,394.474747 C404.076768,397.19697 404.967677,399.968687 405.561616,402.839394 C364.777778,444.415152 307.908081,470.20202 245,470.20202 M245,0 C109.680808,0 0,109.680808 0,245 C0,293.653535 14.2050505,339.040404 38.6555556,377.151515 C44.6939394,386.605051 51.3757576,395.563636 58.6515152,404.027273 C60.2848485,405.957576 61.9676768,407.838384 63.6505051,409.719192 C70.2333333,416.994949 77.2616162,423.825253 84.6858586,430.259596 C127.647475,467.479798 183.675758,490 245,490 C306.423232,490 362.550505,467.380808 405.561616,430.061616 C412.490909,424.023232 419.073737,417.638384 425.310101,410.857576 C427.438384,408.531313 429.566667,406.155556 431.59596,403.730303 C438.376768,395.811111 444.662626,387.446465 450.354545,378.636364 C475.448485,340.228283 490,294.29202 490,245 C490,109.680808 380.269697,0 245,0" id="Fill-1" fill="#000000"></path>
            <path d="M288.060606,302.414141 L288.060606,331.121212 C288.060606,353.393939 269.747475,371.707071 247.474747,371.707071 L244.010101,371.707071 C221.737374,371.707071 203.424242,353.393939 203.424242,331.121212 L203.424242,302.414141 C203.424242,280.141414 221.737374,261.828283 244.010101,261.828283 L247.474747,261.828283 C270.242424,261.333333 288.555556,279.646465 288.060606,302.414141 Z" id="Shape" fill="#000000" fill-rule="nonzero"></path>
            <path d="M272.717172,331.121212 L272.717172,302.414141 C272.717172,288.555556 261.333333,277.171717 247.474747,277.171717 L244.010101,277.171717 C230.151515,277.171717 218.767677,288.555556 218.767677,302.414141 L218.767677,331.121212 C218.767677,344.979798 230.151515,356.363636 244.010101,356.363636 L247.474747,356.363636 C261.333333,356.363636 272.717172,344.979798 272.717172,331.121212 Z" id="Shape" fill="#FFFFFF" fill-rule="nonzero"></path>
            <path d="M145.020202,250.939394 C128.686869,250.939394 114.828283,239.060606 114.828283,224.212121 C114.828283,209.363636 128.191919,197.484848 145.020202,197.484848 C161.353535,197.484848 175.212121,209.363636 175.212121,224.212121 C175.212121,239.060606 161.848485,250.939394 145.020202,250.939394" id="Shape" fill="#FFFFFF" fill-rule="nonzero"></path>
            <path d="M145.020202,204.909091 C157.393939,204.909091 167.787879,213.323232 167.787879,224.212121 C167.787879,234.606061 157.888889,243.515152 145.020202,243.515152 C132.646465,243.515152 122.252525,235.10101 122.252525,224.212121 C122.747475,213.323232 132.646465,204.909091 145.020202,204.909091 M145.020202,190.060606 C124.232323,190.060606 107.40404,205.40404 107.40404,224.212121 C107.40404,243.020202 124.232323,258.363636 145.020202,258.363636 C165.808081,258.363636 182.636364,243.020202 182.636364,224.212121 C182.636364,205.40404 165.808081,190.060606 145.020202,190.060606" id="Shape" fill="#000000" fill-rule="nonzero"></path>
            <path d="M345.969697,250.939394 C329.636364,250.939394 315.777778,239.060606 315.777778,224.212121 C315.777778,209.363636 329.141414,197.484848 345.969697,197.484848 C362.30303,197.484848 376.161616,209.363636 376.161616,224.212121 C376.161616,239.060606 362.30303,250.939394 345.969697,250.939394" id="Shape" fill="#FFFFFF" fill-rule="nonzero"></path>
            <path d="M345.969697,204.909091 C358.343434,204.909091 368.737374,213.323232 368.737374,224.212121 C368.737374,234.606061 358.838384,243.515152 345.969697,243.515152 C333.59596,243.515152 323.20202,235.10101 323.20202,224.212121 C323.20202,213.323232 333.59596,204.909091 345.969697,204.909091 M345.969697,190.060606 C325.181818,190.060606 308.353535,205.40404 308.353535,224.212121 C308.353535,243.020202 325.181818,258.363636 345.969697,258.363636 C366.757576,258.363636 383.585859,243.020202 383.585859,224.212121 C383.585859,205.40404 366.757576,190.060606 345.969697,190.060606" id="Shape" fill="#000000" fill-rule="nonzero"></path>
            <path d="M245,322.707071 C187.090909,322.707071 140.070707,275.686869 140.070707,217.777778 C140.070707,159.868687 187.090909,112.848485 245,112.848485 C302.909091,112.848485 349.929293,159.868687 349.929293,217.777778 C349.929293,275.686869 302.909091,322.707071 245,322.707071" id="Shape" fill="#FFFFFF" fill-rule="nonzero"></path>
            <path d="M245,122.747475 C297.464646,122.747475 340.030303,165.313131 340.030303,217.777778 C340.030303,270.242424 297.464646,312.808081 245,312.808081 C192.535354,312.808081 149.969697,270.242424 149.969697,217.777778 C149.969697,165.313131 192.535354,122.747475 245,122.747475 M245,102.949495 C181.646465,102.949495 130.171717,154.424242 130.171717,217.777778 C130.171717,281.131313 181.646465,332.606061 245,332.606061 C308.353535,332.606061 359.828283,281.131313 359.828283,217.777778 C359.828283,154.424242 308.353535,102.949495 245,102.949495" id="Shape" fill="#000000" fill-rule="nonzero"></path>
            <path d="M187.585859,161.353535 C187.585859,161.353535 175.707071,256.383838 154.919192,252.919192 C134.131313,248.959596 146.505051,204.414141 146.505051,204.414141 L187.585859,161.353535 Z" id="Shape" fill="#4AB1E5" fill-rule="nonzero"></path>
            <path d="M187.585859,161.353535 C187.585859,161.353535 175.707071,256.383838 154.919192,252.919192 C134.131313,248.959596 146.505051,204.414141 146.505051,204.414141 L187.585859,161.353535 Z" id="Shape" stroke="#000000" stroke-width="16.3333333" stroke-linecap="round"></path>
            <path d="M187.585859,155.414141 C187.585859,155.414141 181.646465,194.020202 216.787879,194.020202 C251.929293,194.020202 345.969697,199.959596 342.505051,244.505051 C348.939394,243.515152 354.878788,192.040404 354.878788,192.040404 C354.878788,192.040404 255.888889,69.7878788 193.525253,151.949495" id="Shape" fill="#4AB1E5" fill-rule="nonzero"></path>
            <path d="M187.585859,155.414141 C187.585859,155.414141 181.646465,194.020202 216.787879,194.020202 C251.929293,194.020202 345.969697,199.959596 342.505051,244.505051 C348.939394,243.515152 354.878788,192.040404 354.878788,192.040404 C354.878788,192.040404 255.888889,69.7878788 193.525253,151.949495" id="Shape" stroke="#000000" stroke-width="16.3333333" stroke-linecap="round"></path>
            <path d="M338.545455,144.030303 C336.565657,144.030303 334.090909,143.535354 331.616162,142.545455 C331.616162,142.545455 280.141414,121.757576 247.474747,121.757576 C214.808081,121.757576 163.333333,142.545455 162.838384,142.545455 C161.353535,143.535354 159.373737,143.535354 157.888889,143.535354 C153.929293,143.535354 150.464646,142.050505 148.484848,139.080808 C146.010101,135.616162 145.020202,130.666667 146.010101,125.717172 C146.505051,120.767677 148.979798,88.5959596 162.343434,72.2626263 C177.191919,53.9494949 208.373737,33.1616162 248.464646,33.1616162 C288.060606,33.1616162 322.707071,56.4242424 334.585859,72.7575758 C344.979798,87.1111111 348.444444,110.373737 349.929293,121.757576 C350.424242,123.737374 350.424242,125.222222 350.424242,126.212121 C351.414141,130.171717 351.414141,136.111111 347.949495,140.565657 C344.979798,143.040404 342.010101,144.030303 338.545455,144.030303" id="Shape" fill="#C7C6C8" fill-rule="nonzero"></path>
            <path d="M247.474747,40.5858586 C285.090909,40.5858586 317.262626,62.8585859 327.656566,77.2121212 C339.040404,92.5555556 341.020202,121.757576 342.010101,127.69697 C343,131.656566 342.505051,136.606061 338.545455,136.606061 C337.555556,136.606061 336.070707,136.111111 334.585859,135.616162 C334.585859,135.616162 282.121212,114.333333 247.474747,114.333333 C212.828283,114.333333 160.363636,135.616162 160.363636,135.616162 C159.373737,136.111111 158.383838,136.111111 157.888889,136.111111 C153.434343,136.111111 151.949495,131.161616 152.939394,126.707071 C152.939394,126.707071 154.919192,93.0505051 167.787879,77.2121212 C180.161616,61.3737374 209.858586,40.5858586 247.474747,40.5858586 M247.474747,25.7373737 C204.909091,25.7373737 171.747475,48.5050505 155.909091,67.8080808 C141.555556,85.6262626 138.585859,117.30303 138.090909,124.727273 C136.606061,131.656566 138.585859,138.585859 142.050505,143.535354 C146.010101,148.484848 151.454545,150.959596 157.393939,150.959596 C160.363636,150.959596 162.838384,150.464646 165.808081,149.474747 C166.30303,148.979798 216.292929,129.181818 247.474747,129.181818 C277.666667,129.181818 325.181818,147.989899 328.646465,149.474747 C332.111111,150.959596 335.080808,151.454545 338.545455,151.454545 C343.989899,151.454545 349.434343,148.979798 352.89899,144.525253 C356.858586,139.575758 358.343434,132.646465 356.858586,124.232323 C356.858586,123.242424 356.363636,122.252525 356.363636,120.272727 C354.878788,108.393939 351.414141,83.6464646 340.030303,67.8080808 C327.656566,51.969697 292.020202,25.7373737 247.474747,25.7373737" id="Shape" fill="#000000" fill-rule="nonzero"></path>
            <path d="M342.505051,127.69697 C341.515152,121.757576 339.535354,93.0505051 328.151515,77.2121212 C320.232323,66.3232323 299.939394,50.979798 273.707071,44.0505051 C280.636364,68.7979798 281.131313,94.040404 281.131313,118.787879 C308.848485,125.222222 335.080808,135.616162 335.080808,135.616162 C342.505051,139.575758 343.494949,132.646465 342.505051,127.69697" id="Shape" fill="#A9A5A4" fill-rule="nonzero"></path>
            <path d="M135.616162,201.939394 C121.262626,176.20202 129.181818,143.535354 136.606061,132.646465 C141.060606,126.212121 180.161616,70.2828283 245,70.2828283 C299.939394,70.2828283 342.505051,116.313131 352.89899,132.646465 C364.282828,149.969697 366.262626,181.151515 356.363636,196.494949 L350.424242,205.89899 L343.989899,196.989899 C343.494949,196.494949 299.939394,135.616162 245.494949,135.616162 L244.505051,135.616162 C191.050505,135.616162 148.484848,201.444444 147.989899,201.939394 L141.555556,212.828283 L135.616162,201.939394 Z" id="Shape" fill="#EDEEEF" fill-rule="nonzero"></path>
            <path d="M245.494949,78.2020202 C297.464646,78.2020202 337.555556,122.747475 347.454545,137.10101 C357.353535,151.949495 359.333333,179.666667 350.919192,192.535354 C350.919192,192.535354 305.878788,128.191919 245.989899,128.191919 L245.494949,128.191919 L245,128.191919 C186.59596,128.191919 142.545455,197.979798 142.545455,197.979798 C130.171717,175.707071 136.606061,146.010101 143.535354,136.606061 C155.414141,118.292929 192.535354,78.2020202 245.494949,78.2020202 M245.494949,63.3535354 C176.69697,63.3535354 135.121212,122.252525 130.666667,128.686869 C120.767677,143.535354 114.333333,179.666667 129.181818,205.89899 L141.555556,227.676768 L154.919192,206.393939 C154.919192,205.89899 195.505051,143.535354 245,143.535354 L245.494949,143.535354 L246.484848,143.535354 C296.969697,143.535354 338.050505,200.949495 338.545455,201.444444 L351.414141,219.757576 L363.292929,200.949495 C375.666667,181.646465 371.212121,147 359.828283,129.181818 C347.454545,110.868687 303.40404,63.3535354 245.494949,63.3535354" id="Shape" fill="#000000" fill-rule="nonzero"></path>
            <path d="M347.454545,137.10101 C341.020202,127.20202 319.737374,102.949495 290.535354,89.0909091 C294.494949,106.414141 297.959596,124.727273 294,142.050505 C328.151515,160.858586 350.919192,193.030303 350.919192,193.030303 C358.838384,179.666667 356.858586,151.949495 347.454545,137.10101" id="Shape" fill="#D8D6D6" fill-rule="nonzero"></path>
            <path d="M299.444444,230.646465 C299.444444,236.585859 294.989899,241.040404 289.050505,241.040404 C283.111111,241.040404 278.656566,236.585859 278.656566,230.646465 C278.656566,224.707071 283.111111,220.252525 289.050505,220.252525 C294.989899,220.252525 299.444444,224.707071 299.444444,230.646465" id="Shape" fill="#000000" fill-rule="nonzero"></path>
            <path d="M212.333333,230.646465 C212.333333,236.585859 207.878788,241.040404 201.939394,241.040404 C196,241.040404 191.545455,236.585859 191.545455,230.646465 C191.545455,224.707071 196,220.252525 201.939394,220.252525 C207.383838,220.252525 212.333333,224.707071 212.333333,230.646465" id="Shape" fill="#000000" fill-rule="nonzero"></path>
        </g>
    </g>
</svg>