<?xml version="1.0" standalone="no"?>
<!DOCTYPE svg PUBLIC "-//W3C//DTD SVG 20010904//EN"
 "http://www.w3.org/TR/2001/REC-SVG-20010904/DTD/svg10.dtd">
<svg version="1.0" xmlns="http://www.w3.org/2000/svg"
 width="700.000000pt" height="700.000000pt" viewBox="0 0 700.000000 700.000000"
 preserveAspectRatio="xMidYMid meet">
<metadata>
Created by potrace 1.11, written by Peter Selinger 2001-2013
</metadata>
<g transform="translate(0.000000,700.000000) scale(0.100000,-0.100000)"
fill="#000000" stroke="none">
<path d="M3410 6774 c-235 -30 -430 -101 -615 -222 -89 -58 -250 -219 -294
-294 -45 -79 -88 -206 -115 -346 -19 -102 -27 -123 -60 -166 -51 -68 -81 -129
-112 -233 -23 -76 -27 -108 -28 -233 -1 -112 3 -162 18 -218 l18 -73 -54 -48
c-137 -123 -158 -314 -50 -455 43 -57 114 -109 183 -133 48 -17 49 -19 103
-128 109 -223 284 -412 491 -531 38 -22 45 -29 30 -32 -451 -68 -845 -240
-1071 -469 l-82 -82 -269 -3 -270 -3 -41 -28 c-55 -36 -90 -90 -102 -158 -7
-37 -9 -438 -8 -1165 3 -1057 4 -1111 22 -1152 19 -45 98 -122 125 -122 9 -1
-4 -11 -29 -23 -84 -41 -99 -126 -34 -188 l26 -24 2291 -3 c1703 -2 2299 1
2320 9 87 36 88 162 2 203 l-36 17 48 32 c31 21 56 49 73 82 l25 49 3 1115 c2
709 -1 1133 -7 1168 -14 75 -58 135 -123 167 -52 26 -53 26 -299 26 l-248 0
-42 50 c-23 27 -74 76 -113 108 -236 196 -561 326 -989 397 l-39 6 76 47 c204
127 372 319 467 535 30 68 38 78 69 88 113 37 200 106 246 196 26 51 29 68 29
148 0 80 -3 97 -30 148 -16 33 -51 78 -78 103 l-49 43 21 83 c51 201 9 468
-98 629 -32 48 -40 72 -50 141 -32 223 -101 415 -188 519 -158 189 -437 345
-722 404 -75 16 -278 27 -341 19z m315 -180 c215 -41 414 -139 563 -278 82
-77 117 -129 152 -224 51 -144 53 -143 -54 -57 -194 154 -360 245 -550 299
-127 37 -204 48 -346 48 -295 -1 -575 -104 -842 -309 -37 -28 -58 -39 -58 -30
0 29 80 175 122 222 97 110 272 224 428 280 204 72 381 87 585 49z m45 -408
c125 -34 332 -138 443 -221 187 -142 338 -307 395 -435 49 -108 70 -249 53
-359 -12 -78 -39 -153 -52 -149 -5 2 -48 48 -96 104 -236 272 -509 464 -757
534 -374 105 -737 -25 -1091 -391 -61 -63 -141 -156 -179 -206 -38 -51 -72
-93 -75 -93 -11 0 -41 85 -57 160 -33 156 2 376 79 493 58 89 275 301 382 374
155 105 326 178 485 208 121 23 351 14 470 -19z m-100 -671 c141 -30 287 -101
440 -214 103 -76 292 -267 377 -381 l70 -95 -10 -62 -10 -62 -51 51 c-92 91
-172 136 -336 191 -205 68 -499 113 -815 123 -102 3 -202 12 -230 19 -79 22
-131 88 -149 187 -7 37 -6 37 66 88 96 68 216 126 308 150 93 23 241 26 340 5z
m-920 -529 c-70 -327 -160 -553 -214 -533 -36 14 -49 74 -44 209 l5 126 52 78
c46 67 221 268 228 261 1 -1 -11 -65 -27 -141z m254 -8 c67 -34 92 -38 321
-48 673 -30 1077 -168 1126 -384 10 -46 9 -61 -6 -107 -86 -261 -290 -486
-543 -601 -127 -57 -241 -81 -397 -82 -151 -1 -238 14 -364 61 -209 78 -402
243 -511 436 l-33 59 50 43 c93 82 165 262 234 587 l22 107 30 -25 c16 -14 48
-34 71 -46z m1763 -204 c26 -46 30 -121 9 -162 -8 -15 -31 -43 -51 -62 l-36
-35 8 80 c4 44 8 117 8 162 0 80 1 82 20 69 11 -7 30 -31 42 -52z m-2481 -32
c0 -48 4 -115 8 -150 7 -61 7 -63 -13 -52 -60 31 -90 154 -55 223 18 34 43 67
53 67 3 0 6 -39 7 -88z m1199 -1203 c72 0 161 5 199 11 38 6 70 9 72 7 7 -7
-48 -111 -82 -152 -90 -111 -245 -115 -351 -8 -31 31 -103 147 -103 165 0 3
30 -1 68 -8 37 -8 126 -14 197 -15z m-392 -89 c15 -12 41 -48 58 -81 70 -131
189 -199 348 -199 167 0 278 62 345 191 62 120 72 123 267 89 228 -41 428
-104 600 -190 85 -43 214 -123 224 -141 4 -5 -541 -9 -1431 -9 -1259 0 -1435
2 -1424 15 22 26 172 117 264 160 152 71 354 132 561 169 116 21 158 20 188
-4z m2637 -485 c16 -8 34 -24 40 -34 7 -13 10 -394 10 -1151 l0 -1131 -25 -24
-24 -25 -2230 0 -2229 0 -26 31 -26 31 0 1127 c0 1227 -3 1158 54 1181 11 5
1010 9 2224 9 1946 1 2206 -1 2232 -14z"/>
<path d="M3025 4722 c-39 -6 -64 -25 -80 -59 -51 -108 78 -203 167 -124 28 25
33 36 33 75 0 69 -56 119 -120 108z"/>
<path d="M3934 4718 c-56 -14 -88 -74 -72 -135 12 -45 51 -73 104 -73 94 0
141 112 74 178 -33 34 -62 42 -106 30z"/>
<path d="M3630 2149 c-51 -21 -100 -91 -100 -145 0 -25 2 -26 32 -20 55 11
118 91 118 151 0 27 -10 30 -50 14z"/>
<path d="M3335 1967 c-21 -12 -52 -41 -69 -64 -25 -36 -30 -54 -34 -122 -7
-127 40 -251 128 -340 36 -36 31 -35 158 -15 26 4 65 2 97 -6 29 -7 66 -10 81
-6 35 9 79 56 125 133 l36 61 -29 22 c-46 34 -68 78 -68 139 0 56 25 113 55
125 42 16 -9 67 -88 87 -40 10 -58 9 -115 -6 -64 -17 -72 -17 -117 -2 -66 23
-112 21 -160 -6z"/>
</g>
</svg>
