<?xml version="1.0" encoding="UTF-8"?>
<svg width="512px" height="512px" viewBox="0 0 512 512" version="1.1" xmlns="http://www.w3.org/2000/svg" xmlns:xlink="http://www.w3.org/1999/xlink">
    <!-- Generator: Sketch 51.2 (57519) - http://www.bohemiancoding.com/sketch -->
    <title>squared</title>
    <desc>Created with Sketch.</desc>
    <defs></defs>
    <g id="squared" stroke="none" stroke-width="1" fill="none" fill-rule="evenodd">
        <rect id="Rectangle" fill="#FFFFFF" fill-rule="nonzero" x="0" y="0" width="512" height="512" rx="60"></rect>
        <g id="Group-2" transform="translate(49.000000, 45.000000)">
            <g id="Group">
                <g id="me_body" transform="translate(0.000000, 311.119497)" fill-rule="nonzero">
                    <path d="M158.5,282.631447 C123.5,281.631866 87,280.132495 55,264.638994 C23.5,249.145493 5,220.657442 1,186.171908 C-1,168.179455 3.67775255e-13,150.187002 8,133.69392 C15.5,118.70021 27,106.705241 40.5,96.709434 C72.5,73.7190776 111,64.2230608 149,57.7257862 C158,56.2264151 167.5,55.2268344 174.5,61.724109 C181,67.7215933 183,76.2180294 187,83.2150943 C191,90.2121593 199,98.208805 208,97.2092243 C217,96.709434 224,89.2125786 228,81.7157233 C232,74.7186583 234,66.7220126 240.5,61.2243187 C248,54.727044 258,56.2264151 267,57.7257862 C287,61.2243187 307,65.2226415 326.5,72.2197065 C358,83.7148847 391,102.706918 406.5,134.193711 C421.5,164.181132 415,205.163941 397,232.652411 C377,262.140042 341.5,274.13501 308,279.132914 C269.5,284.630608 229.5,283.131237 190.5,283.131237 C180,283.131237 169.5,283.131237 158.5,282.631447 Z M71.5,246.646541 C104,259.1413 140,259.64109 174.5,259.64109 C211.5,260.140881 248.5,261.140461 285,258.141719 C315.5,255.642767 350,250.644864 372,227.154717 C381,217.6587 387,205.163941 390,192.169392 C393,177.175681 394,161.18239 387.5,146.68847 C375,119.69979 345,103.706499 318.5,94.2104822 C302,88.2129979 284.5,84.2146751 267.5,81.2159329 C260.5,80.2163522 253,78.2171908 248,84.2146751 C244,89.712369 242.5,95.7098532 237.5,100.707757 C217,122.198742 182,114.701887 170,88.2129979 C167,81.7157233 162.5,79.2167715 155.5,79.7165618 C146.5,80.7161426 138,82.715304 129,84.7144654 C112,88.7127883 95,93.7106918 79,101.207547 C54.5,113.702306 27.5,132.69434 23,161.18239 C19,189.67044 30,219.657862 53.5,236.650734 C59,240.649057 65.5,244.147589 71.5,246.646541 Z" id="Combined-Shape" fill="#000000"></path>
                    <path d="M256,46.7303983 L256,79.7165618 C256,105.20587 235,126.197065 209.5,126.197065 L205.5,126.197065 C180,126.197065 159,105.20587 159,79.7165618 L159,46.7303983 C159,21.2410901 180,0.249895178 205.5,0.249895178 L209.5,0.249895178 C235.5,0.249895178 256.5,21.2410901 256,46.7303983 Z" id="Shape" fill="#000000"></path>
                    <path d="M238.5,79.7165618 L238.5,46.7303983 C238.5,30.7371069 225.5,17.7425577 209.5,17.7425577 L205.5,17.7425577 C189.5,17.7425577 176.5,30.7371069 176.5,46.7303983 L176.5,79.7165618 C176.5,95.7098532 189.5,108.704403 205.5,108.704403 L209.5,108.704403 C225.5,108.704403 238.5,95.7098532 238.5,79.7165618 Z" id="Shape" fill="#FFFFFF"></path>
                </g>
                <path d="M81.2752525,282.305826 C60.8585859,282.305826 43.5353535,267.463566 43.5353535,248.910743 C43.5353535,230.357919 60.239899,215.51566 81.2752525,215.51566 C101.691919,215.51566 119.015152,230.357919 119.015152,248.910743 C119.015152,267.463566 102.310606,282.305826 81.2752525,282.305826" id="Shape" fill="#FFFFFF" fill-rule="nonzero"></path>
                <path d="M81.2752525,224.792072 C96.7424242,224.792072 109.734848,235.305339 109.734848,248.910743 C109.734848,261.897719 97.3611111,273.029414 81.2752525,273.029414 C65.8080808,273.029414 52.8156566,262.516147 52.8156566,248.910743 C53.4343434,235.305339 65.8080808,224.792072 81.2752525,224.792072 M81.2752525,206.239248 C55.290404,206.239248 34.2550505,225.410499 34.2550505,248.910743 C34.2550505,272.410986 55.290404,291.582237 81.2752525,291.582237 C107.260101,291.582237 128.295455,272.410986 128.295455,248.910743 C128.295455,225.410499 107.260101,206.239248 81.2752525,206.239248" id="Shape" fill="#000000" fill-rule="nonzero"></path>
                <path d="M332.462121,282.305826 C312.045455,282.305826 294.722222,267.463566 294.722222,248.910743 C294.722222,230.357919 311.426768,215.51566 332.462121,215.51566 C352.878788,215.51566 370.20202,230.357919 370.20202,248.910743 C370.20202,267.463566 352.878788,282.305826 332.462121,282.305826" id="Shape" fill="#FFFFFF" fill-rule="nonzero"></path>
                <path d="M332.462121,224.792072 C347.929293,224.792072 360.921717,235.305339 360.921717,248.910743 C360.921717,261.897719 348.54798,273.029414 332.462121,273.029414 C316.994949,273.029414 304.002525,262.516147 304.002525,248.910743 C304.002525,235.305339 316.994949,224.792072 332.462121,224.792072 M332.462121,206.239248 C306.477273,206.239248 285.441919,225.410499 285.441919,248.910743 C285.441919,272.410986 306.477273,291.582237 332.462121,291.582237 C358.44697,291.582237 379.482323,272.410986 379.482323,248.910743 C379.482323,225.410499 358.44697,206.239248 332.462121,206.239248" id="Shape" fill="#000000" fill-rule="nonzero"></path>
                <path d="M206.25,371.977807 C133.863636,371.977807 75.0883838,313.227199 75.0883838,240.871186 C75.0883838,168.515173 133.863636,109.764564 206.25,109.764564 C278.636364,109.764564 337.411616,168.515173 337.411616,240.871186 C337.411616,313.227199 278.636364,371.977807 206.25,371.977807" id="Shape" fill="#FFFFFF" fill-rule="nonzero"></path>
                <path d="M206.25,122.133113 C271.830808,122.133113 325.037879,175.317875 325.037879,240.871186 C325.037879,306.424497 271.830808,359.609258 206.25,359.609258 C140.669192,359.609258 87.4621212,306.424497 87.4621212,240.871186 C87.4621212,175.317875 140.669192,122.133113 206.25,122.133113 M206.25,97.3960147 C127.058081,97.3960147 62.7146465,161.712471 62.7146465,240.871186 C62.7146465,320.029901 127.058081,384.346357 206.25,384.346357 C285.441919,384.346357 349.785354,320.029901 349.785354,240.871186 C349.785354,161.712471 285.441919,97.3960147 206.25,97.3960147" id="Shape" fill="#000000" fill-rule="nonzero"></path>
                <path d="M134.482323,170.370455 C134.482323,170.370455 119.633838,289.108528 93.6489899,284.779535 C67.6641414,279.832116 83.1313131,224.173644 83.1313131,224.173644 L134.482323,170.370455 Z" id="Shape" fill="#4AB1E5" fill-rule="nonzero"></path>
                <path d="M134.482323,170.370455 C134.482323,170.370455 119.633838,289.108528 93.6489899,284.779535 C67.6641414,279.832116 83.1313131,224.173644 83.1313131,224.173644 L134.482323,170.370455 Z" id="Shape" stroke="#000000" stroke-width="20.4166667" stroke-linecap="round"></path>
                <path d="M134.482323,162.949326 C134.482323,162.949326 127.058081,211.186668 170.984848,211.186668 C214.911616,211.186668 332.462121,218.607797 328.131313,274.266269 C336.174242,273.029414 343.598485,208.712958 343.598485,208.712958 C343.598485,208.712958 219.861111,55.9613748 141.906566,158.620333" id="Shape" fill="#4AB1E5" fill-rule="nonzero"></path>
                <path d="M134.482323,162.949326 C134.482323,162.949326 127.058081,211.186668 170.984848,211.186668 C214.911616,211.186668 332.462121,218.607797 328.131313,274.266269 C336.174242,273.029414 343.598485,208.712958 343.598485,208.712958 C343.598485,208.712958 219.861111,55.9613748 141.906566,158.620333" id="Shape" stroke="#000000" stroke-width="20.4166667" stroke-linecap="round"></path>
                <path d="M323.181818,148.725494 C320.707071,148.725494 317.613636,148.107066 314.520202,146.870212 C314.520202,146.870212 250.176768,120.896258 209.343434,120.896258 C168.510101,120.896258 104.166667,146.870212 103.54798,146.870212 C101.691919,148.107066 99.2171717,148.107066 97.3611111,148.107066 C92.4116162,148.107066 88.0808081,146.251784 85.6060606,142.541219 C82.5126263,138.212227 81.2752525,132.027952 82.5126263,125.843678 C83.1313131,119.659403 86.2247475,79.4616183 102.929293,59.0535121 C121.489899,36.171696 160.467172,10.1977426 210.580808,10.1977426 C260.075758,10.1977426 303.383838,39.2638333 318.232323,59.6719395 C331.224747,77.6063359 335.555556,106.672427 337.411616,120.896258 C338.030303,123.369968 338.030303,125.22525 338.030303,126.462105 C339.267677,131.409525 339.267677,138.830655 334.936869,144.396502 C331.224747,147.488639 327.512626,148.725494 323.181818,148.725494" id="Shape" fill="#C7C6C8" fill-rule="nonzero"></path>
                <path d="M209.343434,19.4741545 C256.363636,19.4741545 296.578283,47.3033903 309.570707,65.2377867 C323.800505,84.409038 326.275253,120.896258 327.512626,128.317388 C328.75,133.264807 328.131313,139.449082 323.181818,139.449082 C321.944444,139.449082 320.088384,138.830655 318.232323,138.212227 C318.232323,138.212227 252.651515,111.619846 209.343434,111.619846 C166.035354,111.619846 100.454545,138.212227 100.454545,138.212227 C99.2171717,138.830655 97.979798,138.830655 97.3611111,138.830655 C91.7929293,138.830655 89.9368687,132.64638 91.1742424,127.080533 C91.1742424,127.080533 93.6489899,85.0274654 109.734848,65.2377867 C125.20202,45.4481079 162.323232,19.4741545 209.343434,19.4741545 M209.343434,0.921330707 C156.136364,0.921330707 114.684343,29.3689939 94.8863636,53.4876649 C76.9444444,75.7510535 73.2323232,115.330411 72.6136364,124.606823 C70.7575758,133.264807 73.2323232,141.922792 77.5631313,148.107066 C82.5126263,154.291341 89.3181818,157.383478 96.7424242,157.383478 C100.454545,157.383478 103.54798,156.765051 107.260101,155.528196 C107.878788,154.909769 170.366162,130.17267 209.343434,130.17267 C247.083333,130.17267 306.477273,153.672914 310.808081,155.528196 C315.138889,157.383478 318.85101,158.001906 323.181818,158.001906 C329.987374,158.001906 336.792929,154.909769 341.123737,149.343921 C346.073232,143.159647 347.929293,134.501662 346.073232,123.988395 C346.073232,122.751541 345.454545,121.514686 345.454545,119.040976 C343.598485,104.198717 339.267677,73.2773437 325.037879,53.4876649 C309.570707,33.6979862 265.025253,0.921330707 209.343434,0.921330707" id="Shape" fill="#000000" fill-rule="nonzero"></path>
                <path d="M328.131313,128.317388 C326.893939,120.896258 324.419192,85.0274654 310.189394,65.2377867 C300.290404,51.6323825 274.924242,32.4611312 242.133838,23.8031468 C250.795455,54.7245198 251.414141,86.2643204 251.414141,117.185693 C286.060606,125.22525 318.85101,138.212227 318.85101,138.212227 C328.131313,143.159647 329.368687,134.501662 328.131313,128.317388" id="Shape" fill="#A9A5A4" fill-rule="nonzero"></path>
                <path d="M69.520202,221.081507 C51.5782828,188.923279 61.4772727,148.107066 70.7575758,134.501662 C76.3257576,126.462105 125.20202,56.5798022 206.25,56.5798022 C274.924242,56.5798022 328.131313,114.093556 341.123737,134.501662 C355.353535,156.146623 357.828283,195.107554 345.454545,214.278805 L338.030303,226.028927 L329.987374,214.897232 C329.368687,214.278805 274.924242,138.212227 206.868687,138.212227 L205.631313,138.212227 C138.813131,138.212227 85.6060606,220.463079 84.9873737,221.081507 L76.9444444,234.686911 L69.520202,221.081507 Z" id="Shape" fill="#EDEEEF" fill-rule="nonzero"></path>
                <path d="M206.868687,66.4746416 C271.830808,66.4746416 321.944444,122.133113 334.318182,140.067509 C346.691919,158.620333 349.166667,193.252271 338.64899,209.331385 C338.64899,209.331385 282.348485,128.935815 207.487374,128.935815 L206.868687,128.935815 L206.25,128.935815 C133.244949,128.935815 78.1818182,216.134087 78.1818182,216.134087 C62.7146465,188.304851 70.7575758,151.199204 79.4191919,139.449082 C94.2676768,116.567266 140.669192,66.4746416 206.868687,66.4746416 M206.868687,47.9218178 C120.871212,47.9218178 68.9015152,121.514686 63.3333333,129.554243 C50.959596,148.107066 42.9166667,193.252271 61.4772727,226.028927 L76.9444444,253.239735 L93.6489899,226.647354 C93.6489899,226.028927 144.381313,148.107066 206.25,148.107066 L206.868687,148.107066 L208.106061,148.107066 C271.212121,148.107066 322.563131,219.844652 323.181818,220.463079 L339.267677,243.344895 L354.116162,219.844652 C369.583333,195.725981 364.015152,152.436059 349.785354,130.17267 C334.318182,107.290854 279.255051,47.9218178 206.868687,47.9218178" id="Shape" fill="#000000" fill-rule="nonzero"></path>
                <path d="M334.318182,140.067509 C326.275253,127.69896 299.671717,97.3960147 263.169192,80.0800457 C268.118687,101.725007 272.449495,124.606823 267.5,146.251784 C310.189394,169.752028 338.64899,209.949813 338.64899,209.949813 C348.54798,193.252271 346.073232,158.620333 334.318182,140.067509" id="Shape" fill="#D8D6D6" fill-rule="nonzero"></path>
                <path d="M274.305556,256.9503 C274.305556,264.371429 268.737374,269.937276 261.313131,269.937276 C253.888889,269.937276 248.320707,264.371429 248.320707,256.9503 C248.320707,249.52917 253.888889,243.963323 261.313131,243.963323 C268.737374,243.963323 274.305556,249.52917 274.305556,256.9503" id="Shape" fill="#000000" fill-rule="nonzero"></path>
                <path d="M165.416667,256.9503 C165.416667,264.371429 159.848485,269.937276 152.424242,269.937276 C145,269.937276 139.431818,264.371429 139.431818,256.9503 C139.431818,249.52917 145,243.963323 152.424242,243.963323 C159.229798,243.963323 165.416667,249.52917 165.416667,256.9503" id="Shape" fill="#000000" fill-rule="nonzero"></path>
            </g>
        </g>
    </g>
</svg>