<?xml version="1.0" encoding="UTF-8"?>
<svg width="400px" height="400px" viewBox="0 0 400 400" version="1.1" xmlns="http://www.w3.org/2000/svg" xmlns:xlink="http://www.w3.org/1999/xlink">
    <!-- Generator: Sketch 51.2 (57519) - http://www.bohemiancoding.com/sketch -->
    <title>thumbnail</title>
    <desc>Created with Sketch.</desc>
    <defs>
        <linearGradient x1="50%" y1="25.7559024%" x2="50%" y2="121.01122%" id="linearGradient-1">
            <stop stop-color="#4AB1E5" stop-opacity="0" offset="0%"></stop>
            <stop stop-color="#4AB1E5" offset="100%"></stop>
        </linearGradient>
    </defs>
    <g id="thumbnail" stroke="none" stroke-width="1" fill="none" fill-rule="evenodd">
        <g id="Group-2" transform="translate(126.000000, 127.000000)">
            <g id="me_body" transform="translate(21.000000, 57.000000)" fill-rule="nonzero">
                <g id="body">
                    <g id="Group" transform="translate(43.000000, 0.000000)">
                        <path d="M9.4,23.8 C5.2,23.8 1.8,20.4 1.8,16.2 L1.8,9.6 C1.8,5.4 5.2,2 9.4,2 L10.2,2 C14.4,2 17.8,5.4 17.8,9.6 L17.8,16.2 C17.8,20.4 14.4,23.8 10.2,23.8 L9.4,23.8 Z" id="Shape" fill="#FFFFFF"></path>
                        <path d="M10.2,3.8 C13.4,3.8 16,6.4 16,9.6 L16,16.2 C16,19.4 13.4,22 10.2,22 L9.4,22 C6.2,22 3.6,19.4 3.6,16.2 L3.6,9.6 C3.6,6.4 6.2,3.8 9.4,3.8 L10.2,3.8 M10.2,0.3 L9.4,0.3 C4.3,0.3 0.1,4.5 0.1,9.6 L0.1,16.2 C0.1,21.3 4.3,25.5 9.4,25.5 L10.2,25.5 C15.3,25.5 19.5,21.3 19.5,16.2 L19.5,9.6 C19.6,4.5 15.4,0.3 10.2,0.3" id="Shape" fill="#000000"></path>
                    </g>
                    <path d="M90.5,34.4 C90.5,52.7 73.8,52.7 53.1,52.7 C32.5,52.7 15.7,51.5 15.7,34.4 C15.7,25.9 26.5,18.7 42.6,16.7 C43.5,16.6 44.2,17 44.7,17.9 C45.9,20.4 47.7,23.5 53.1,23.5 C58.8,23.4 60.5,20 61.2,18.1 C61.6,17.1 62.4,16.6 63.3,16.7 C79.6,18.6 90.5,25.8 90.5,34.4" id="Shape" fill="#FFFFFF"></path>
                    <path d="M63.1,16.6 C63.2,16.6 63.3,16.6 63.3,16.6 C79.6,18.6 90.5,25.8 90.5,34.3 C90.5,52.6 73.8,52.6 53.1,52.6 C32.5,52.6 15.7,51.4 15.7,34.3 C15.7,25.8 26.5,18.6 42.6,16.6 C42.7,16.6 42.8,16.6 42.9,16.6 C43.6,16.6 44.3,17 44.7,17.8 C45.9,20.2 47.7,23.4 53,23.4 L53.1,23.4 C58.8,23.3 60.5,19.9 61.2,18 C61.6,17.1 62.3,16.6 63.1,16.6 M63.1,11.9 C60.3,11.9 59.1,13.6 58,16.4 C57.5,17.6 55.8,20.1 53.1,20.1 L53,20.1 C50.6,20.1 48.4,18.2 47.4,16.1 C46.3,13.7 45.4,12 42.9,12 C42.6,12 42.3,12 42.1,12.1 C23.3,14.5 11.1,23.2 11.1,34.4 C11.1,44.3 15.8,51 25.1,54.3 C32.8,57.1 43.2,57.3 53.1,57.3 C63.6,57.3 73.5,57.3 81,54.8 C90.4,51.6 95.1,44.8 95.1,34.4 C95.1,23.1 82.8,14.3 63.8,12 C63.6,12 63.4,11.9 63.1,11.9" id="Shape" fill="#000000"></path>
                    <path d="M105.3,78.5 C105.3,80.6 103.8,82.2 101.9,82.2 L4.1,82.2 C2.2,82.2 0.6,80.5 0.6,78.5 L0.6,29.9 C0.6,27.8 2.2,26.2 4.1,26.2 L101.8,26.2 C103.7,26.2 105.3,27.9 105.3,29.9 L105.3,78.5 Z" id="Shape" stroke="#000000" stroke-width="3" fill="#FFFFFF"></path>
                    <path d="M60.4,59 C60.1,59.6 59.8,60.1 59.5,60.6 C59,61.3 58.6,61.8 58.3,62 C57.8,62.4 57.3,62.6 56.8,62.7 C56.4,62.7 56,62.6 55.4,62.4 C54.9,62.2 54.4,62.1 53.9,62.1 C53.4,62.1 52.9,62.2 52.4,62.4 C51.9,62.6 51.4,62.7 51.1,62.7 C50.6,62.7 50.1,62.5 49.6,62 C49.3,61.7 48.9,61.2 48.4,60.5 C47.9,59.8 47.4,58.9 47.1,57.9 C46.7,56.8 46.6,55.8 46.6,54.8 C46.6,53.7 46.8,52.7 47.3,51.9 C47.7,51.2 48.2,50.7 48.8,50.3 C49.4,49.9 50.1,49.7 50.9,49.7 C51.3,49.7 51.8,49.8 52.5,50.1 C53.2,50.3 53.6,50.5 53.8,50.5 C53.9,50.5 54.4,50.4 55.2,50.1 C56,49.8 56.6,49.7 57.1,49.8 C58.5,49.9 59.6,50.5 60.3,51.5 C59,52.3 58.4,53.3 58.4,54.7 C58.4,55.8 58.8,56.7 59.6,57.4 C59.9,57.7 60.3,58 60.8,58.2 C60.6,58.5 60.5,58.7 60.4,59 Z M57.1,46.1 C57.1,46.9 56.8,47.7 56.2,48.5 C55.5,49.4 54.6,49.9 53.6,49.8 C53.6,49.7 53.6,49.6 53.6,49.5 C53.6,48.7 54,47.8 54.6,47.1 C54.9,46.7 55.3,46.4 55.8,46.2 C56.3,46 56.7,45.8 57.2,45.8 C57.1,45.9 57.1,46 57.1,46.1 Z" id="Shape" fill="#000000"></path>
                </g>
                <path d="M103.3,88.1 L2.6,88.1 C1.5,88.1 0.6,87.2 0.6,86.1 C0.6,85 1.5,84.1 2.6,84.1 L103.3,84.1 C104.4,84.1 105.3,85 105.3,86.1 C105.3,87.2 104.5,88.1 103.3,88.1 Z" id="Shape" stroke="#000000" fill="#000000"></path>
            </g>
            <g id="me_halo" transform="translate(0.000000, 21.000000)" fill="url(#linearGradient-1)" fill-rule="nonzero" opacity="0.5">
                <g id="Group">
                    <polygon id="Shape" points="123 62.1 147.1 0.6 0.9 0.6 25 62.1"></polygon>
                </g>
            </g>
            <g id="Group-3" transform="translate(41.000000, 0.000000)">
                <g id="me_head">
                    <path d="M9.4,52.9 C5.5,52.9 2.3,50.1 2.3,46.6 C2.3,43.1 5.5,40.3 9.4,40.3 C13.3,40.3 16.5,43.1 16.5,46.6 C16.5,50.1 13.3,52.9 9.4,52.9" id="Shape" fill="#FFFFFF" fill-rule="nonzero"></path>
                    <path d="M9.4,42.1 C12.3,42.1 14.7,44.1 14.7,46.6 C14.7,49.1 12.3,51.1 9.4,51.1 C6.5,51.1 4.1,49.1 4.1,46.6 C4.1,44.1 6.4,42.1 9.4,42.1 M9.4,38.6 C4.5,38.6 0.6,42.2 0.6,46.6 C0.6,51 4.6,54.6 9.4,54.6 C14.3,54.6 18.2,51 18.2,46.6 C18.2,42.2 14.2,38.6 9.4,38.6" id="left_ear" fill="#000000" fill-rule="nonzero"></path>
                    <path d="M56.6,52.9 C52.7,52.9 49.5,50.1 49.5,46.6 C49.5,43.1 52.7,40.3 56.6,40.3 C60.5,40.3 63.7,43.1 63.7,46.6 C63.7,50.1 60.5,52.9 56.6,52.9" id="Shape" fill="#FFFFFF" fill-rule="nonzero"></path>
                    <path d="M56.6,42.1 C59.5,42.1 61.9,44.1 61.9,46.6 C61.9,49.1 59.5,51.1 56.6,51.1 C53.7,51.1 51.3,49.1 51.3,46.6 C51.3,44.1 53.7,42.1 56.6,42.1 M56.6,38.6 C51.7,38.6 47.8,42.2 47.8,46.6 C47.8,51 51.8,54.6 56.6,54.6 C61.5,54.6 65.4,51 65.4,46.6 C65.4,42.2 61.5,38.6 56.6,38.6" id="right_ear" fill="#000000" fill-rule="nonzero"></path>
                    <path d="M32.9,69.8 C19.3,69.8 8.2,58.7 8.2,45.1 C8.2,31.5 19.3,20.4 32.9,20.4 C46.5,20.4 57.6,31.5 57.6,45.1 C57.5,58.8 46.5,69.8 32.9,69.8" id="jaw_1_" fill="#FFFFFF" fill-rule="nonzero"></path>
                    <path d="M32.9,22.8 C45.2,22.8 55.2,32.8 55.2,45.1 C55.2,57.4 45.2,67.4 32.9,67.4 C20.6,67.4 10.6,57.4 10.6,45.1 C10.5,32.8 20.5,22.8 32.9,22.8 M32.9,18.2 C18,18.2 5.9,30.3 5.9,45.2 C5.9,60.1 18,72.2 32.9,72.2 C47.8,72.2 59.9,60.1 59.9,45.2 C59.9,30.3 47.8,18.2 32.9,18.2" id="jaw" fill="#000000" fill-rule="nonzero"></path>
                    <g id="hair" transform="translate(8.000000, 23.000000)">
                        <path d="M11.3,8.9 C11.3,8.9 8.5,31.3 3.6,30.4 C-1.2,29.6 1.7,19 1.7,19 L11.3,8.9 Z" id="Shape" fill="#4AB1E5" fill-rule="nonzero"></path>
                        <path d="M11.3,8.9 C11.3,8.9 8.5,31.3 3.6,30.4 C-1.2,29.6 1.7,19 1.7,19 L11.3,8.9 Z" id="Shape" stroke="#000000" stroke-width="3" stroke-linecap="round"></path>
                        <path d="M11.3,7.5 C11.3,7.5 9.9,16.6 18.2,16.6 C26.5,16.6 48.7,18 47.8,28.4 C49.3,28.2 50.8,16.1 50.8,16.1 C50.8,16.1 27.5,-12.6 12.9,6.7" id="Shape" fill="#4AB1E5" fill-rule="nonzero"></path>
                        <path d="M11.3,7.5 C11.3,7.5 9.9,16.6 18.2,16.6 C26.5,16.6 48.7,18 47.8,28.4 C49.3,28.2 50.8,16.1 50.8,16.1 C50.8,16.1 27.5,-12.6 12.9,6.7" id="Shape" stroke="#000000" stroke-width="3" stroke-linecap="round"></path>
                    </g>
                    <g id="beanie" transform="translate(3.000000, 0.000000)" fill-rule="nonzero">
                        <path d="M51.9,27.8 C51.4,27.8 50.8,27.7 50.3,27.4 C50.2,27.4 38.2,22.5 30.5,22.5 C22.8,22.5 10.7,27.4 10.6,27.4 C10.2,27.6 9.7,27.7 9.3,27.7 C8.4,27.7 7.6,27.3 7.1,26.6 C6.5,25.8 6.2,24.6 6.5,23.5 C6.6,22.3 7.2,14.8 10.3,10.9 C13.8,6.6 21.1,1.7 30.5,1.7 C39.8,1.7 47.9,7.1 50.8,11 C53.3,14.4 54,19.9 54.4,22.5 C54.5,23 54.5,23.3 54.6,23.5 C54.8,24.5 54.9,25.8 54.1,26.8 C53.5,27.5 52.8,27.8 51.9,27.8" id="Shape" fill="#C7C6C8"></path>
                        <path d="M30.5,3.5 C39.4,3.5 46.9,8.8 49.4,12.1 C52.1,15.7 52.5,22.6 52.8,23.9 C53,24.9 52.9,26.1 52,26.1 C51.8,26.1 51.5,26 51.1,25.9 C51.1,25.9 38.7,20.9 30.6,20.9 C22.5,20.9 10.1,25.9 10.1,25.9 C9.7,26 9.5,26 9.3,26 C8.3,26 7.9,24.8 8.2,23.8 C8.2,23.8 8.6,15.8 11.6,12.1 C14.7,8.4 21.6,3.5 30.5,3.5 M30.5,0 C20.5,0 12.6,5.3 8.9,9.9 C5.5,14.1 4.8,21.6 4.7,23.3 C4.4,24.9 4.8,26.5 5.7,27.7 C6.6,28.8 7.9,29.5 9.3,29.5 C9.9,29.5 10.6,29.4 11.2,29.1 C11.3,29 23.1,24.3 30.4,24.3 C37.5,24.3 48.7,28.7 49.6,29.1 C50.4,29.4 51.1,29.6 51.9,29.6 C53.2,29.6 54.5,29 55.3,28 C56.3,26.8 56.6,25.1 56.2,23.2 C56.2,23 56.1,22.7 56.1,22.3 C55.7,19.5 55,13.7 52.2,10 C49.3,6.1 40.9,0 30.5,0" id="Shape" fill="#000000"></path>
                        <path d="M52.8,23.9 C52.5,22.5 52.1,15.7 49.4,12.1 C47.5,9.6 42.7,5.9 36.6,4.3 C38.2,10.2 38.3,16 38.4,21.9 C44.9,23.4 51.1,25.9 51.1,25.9 C52.9,26.7 53,25.2 52.8,23.9" id="Shape" fill="#A9A5A4"></path>
                        <path d="M4.2,41.5 C0.8,35.4 2.7,27.8 4.4,25.2 C5.4,23.7 14.6,10.6 30,10.6 C42.9,10.6 52.9,21.5 55.4,25.3 C58.1,29.4 58.5,36.7 56.3,40.3 L54.9,42.5 L53.4,40.4 C53.2,40.2 43,25.9 30.1,25.9 L29.8,25.9 C17.2,25.9 7.2,41.4 7.1,41.6 L5.5,44.1 L4.2,41.5 Z" id="Shape" fill="#EDEEEF"></path>
                        <path d="M30,12.3 C42.2,12.3 51.7,22.7 54,26.2 C56.3,29.7 56.8,36.2 54.8,39.3 C54.8,39.3 44.1,24.1 30.1,24.1 C30.1,24.1 30,24.1 30,24.1 C30,24.1 29.9,24.1 29.9,24.1 C16.1,24.1 5.7,40.6 5.7,40.6 C2.8,35.4 4.4,28.4 5.9,26.1 C8.8,21.8 17.5,12.3 30,12.3 M30,8.8 C13.8,8.8 4,22.6 3,24.2 C0.7,27.7 -0.8,36.2 2.7,42.3 L5.6,47.4 L8.7,42.4 C8.8,42.3 18.3,27.6 29.9,27.6 L30,27.6 L30.2,27.6 C42.2,27.6 51.9,41.1 52,41.3 L55,45.6 L57.8,41.1 C60.7,36.5 59.7,28.4 56.9,24.2 C54,20 43.7,8.8 30,8.8" id="Shape" fill="#000000"></path>
                        <path d="M53.9,26.2 C52.3,23.8 47.4,18.2 40.5,14.9 C41.4,19 42.3,23.3 41.4,27.4 C49.4,31.8 54.7,39.4 54.7,39.4 C56.7,36.2 56.2,29.7 53.9,26.2" id="Shape" fill="#D8D6D6"></path>
                    </g>
                </g>
                <g id="me_eyes" transform="translate(20.000000, 45.000000)" fill="#000000" fill-rule="nonzero">
                    <path d="M5.173,3.153 C5.173,4.509 4.074,5.608 2.719,5.608 C1.361,5.608 0.262,4.509 0.262,3.153 C0.262,1.798 1.361,0.698 2.719,0.698 C4.074,0.698 5.173,1.797 5.173,3.153" id="Shape"></path>
                    <path d="M25.738,3.153 C25.738,4.509 24.638,5.608 23.283,5.608 C21.926,5.608 20.827,4.509 20.827,3.153 C20.827,1.798 21.926,0.698 23.283,0.698 C24.639,0.698 25.738,1.797 25.738,3.153" id="Shape"></path>
                </g>
            </g>
        </g>
    </g>
</svg>