<?xml version="1.0" encoding="utf-8"?>
<!-- Generator: Adobe Illustrator 21.1.0, SVG Export Plug-In . SVG Version: 6.00 Build 0)  -->
<svg version="1.1" id="Layer_1" xmlns="http://www.w3.org/2000/svg" xmlns:xlink="http://www.w3.org/1999/xlink" x="0px" y="0px"
	 viewBox="0 0 111.2 110.9" style="enable-background:new 0 0 111.2 110.9;" xml:space="preserve">
<style type="text/css">
	.st0{fill:#FFFFFF;}
	.st1{fill:#4AB1E5;}
	.st2{fill:none;stroke:#000000;stroke-width:3;stroke-linecap:round;stroke-miterlimit:10;}
	.st3{fill:#C7C6C8;}
	.st4{fill:#A9A5A4;}
	.st5{fill:#EDEEEF;}
	.st6{fill:#D8D6D6;}
</style>
<g id="head_1_">
	<path class="st0" d="M35.3,56.7c-3.3,0-6.1-2.4-6.1-5.4s2.7-5.4,6.1-5.4c3.3,0,6.1,2.4,6.1,5.4S38.7,56.7,35.3,56.7"/>
	<path id="left_ear_1_" d="M35.3,47.4c2.5,0,4.6,1.7,4.6,3.9c0,2.1-2,3.9-4.6,3.9c-2.5,0-4.6-1.7-4.6-3.9
		C30.8,49.1,32.8,47.4,35.3,47.4 M35.3,44.4c-4.2,0-7.6,3.1-7.6,6.9c0,3.8,3.4,6.9,7.6,6.9s7.6-3.1,7.6-6.9
		C42.9,47.5,39.5,44.4,35.3,44.4"/>
	<path class="st0" d="M75.9,56.7c-3.3,0-6.1-2.4-6.1-5.4s2.7-5.4,6.1-5.4c3.3,0,6.1,2.4,6.1,5.4S79.2,56.7,75.9,56.7"/>
	<path id="right_ear_1_" d="M75.9,47.4c2.5,0,4.6,1.7,4.6,3.9c0,2.1-2,3.9-4.6,3.9c-2.5,0-4.6-1.7-4.6-3.9
		C71.3,49.1,73.4,47.4,75.9,47.4 M75.9,44.4c-4.2,0-7.6,3.1-7.6,6.9c0,3.8,3.4,6.9,7.6,6.9s7.6-3.1,7.6-6.9S80.1,44.4,75.9,44.4"/>
	<path id="jaw_3_" class="st0" d="M55.5,71.2c-11.7,0-21.2-9.5-21.2-21.2s9.5-21.2,21.2-21.2S76.7,38.3,76.7,50S67.2,71.2,55.5,71.2
		"/>
	<path id="jaw_2_" d="M55.5,30.8c10.6,0,19.2,8.6,19.2,19.2s-8.6,19.2-19.2,19.2S36.3,60.6,36.3,50S44.9,30.8,55.5,30.8 M55.5,26.8
		c-12.8,0-23.2,10.4-23.2,23.2s10.4,23.2,23.2,23.2S78.7,62.8,78.7,50S68.3,26.8,55.5,26.8"/>
	<g id="hair_1_">
		<path class="st1" d="M43.9,38.6c0,0-2.4,19.2-6.6,18.5c-4.2-0.8-1.7-9.8-1.7-9.8L43.9,38.6z"/>
		<path class="st2" d="M43.9,38.6c0,0-2.4,19.2-6.6,18.5c-4.2-0.8-1.7-9.8-1.7-9.8L43.9,38.6z"/>
		<path class="st1" d="M43.9,37.4c0,0-1.2,7.8,5.9,7.8s26.1,1.2,25.4,10.2c1.3-0.2,2.5-10.6,2.5-10.6s-20-24.7-32.6-8.1"/>
		<path class="st2" d="M43.9,37.4c0,0-1.2,7.8,5.9,7.8s26.1,1.2,25.4,10.2c1.3-0.2,2.5-10.6,2.5-10.6s-20-24.7-32.6-8.1"/>
	</g>
	<g id="beanie_1_">
		<path class="st3" d="M74.4,35.1c-0.4,0-0.9-0.1-1.4-0.3c0,0-10.4-4.2-17-4.2s-17,4.2-17.1,4.2c-0.3,0.2-0.7,0.2-1,0.2
			c-0.8,0-1.5-0.3-1.9-0.9c-0.5-0.7-0.7-1.7-0.5-2.7c0.1-1,0.6-7.5,3.3-10.8c3-3.7,9.3-7.9,17.4-7.9c8,0,15,4.7,17.4,8
			c2.1,2.9,2.8,7.6,3.1,9.9c0.1,0.4,0.1,0.7,0.1,0.9c0.2,0.8,0.2,2-0.5,2.9C75.7,34.9,75.1,35.1,74.4,35.1"/>
		<path d="M56,14.2c7.6,0,14.1,4.5,16.2,7.4c2.3,3.1,2.7,9,2.9,10.2c0.2,0.8,0.1,1.8-0.7,1.8c-0.2,0-0.5-0.1-0.8-0.2
			c0,0-10.6-4.3-17.6-4.3s-17.6,4.3-17.6,4.3c-0.2,0.1-0.4,0.1-0.5,0.1c-0.9,0-1.2-1-1-1.9c0,0,0.4-6.8,3-10
			C42.4,18.4,48.4,14.2,56,14.2 M56,11.2c-8.6,0-15.3,4.6-18.5,8.5c-2.9,3.6-3.5,10-3.6,11.5C33.6,32.6,34,34,34.7,35
			c0.8,1,1.9,1.5,3.1,1.5c0.6,0,1.1-0.1,1.7-0.3c0.1-0.1,10.2-4.1,16.5-4.1c6.1,0,15.7,3.8,16.4,4.1c0.7,0.3,1.3,0.4,2,0.4
			c1.1,0,2.2-0.5,2.9-1.4c0.8-1,1.1-2.4,0.8-4.1c0-0.2-0.1-0.4-0.1-0.8c-0.3-2.4-1-7.4-3.3-10.6C72.2,16.5,65,11.2,56,11.2"/>
		<path class="st4" d="M75.2,31.8c-0.2-1.2-0.6-7-2.9-10.2c-1.6-2.2-5.7-5.3-11-6.7c1.4,5,1.5,10.1,1.5,15.1
			c5.6,1.3,10.9,3.4,10.9,3.4C75.2,34.2,75.4,32.8,75.2,31.8"/>
		<path class="st5" d="M33.4,46.8c-2.9-5.2-1.3-11.8,0.2-14c0.9-1.3,8.8-12.6,21.9-12.6c11.1,0,19.7,9.3,21.8,12.6
			c2.3,3.5,2.7,9.8,0.7,12.9l-1.2,1.9l-1.3-1.8c-0.1-0.1-8.9-12.4-19.9-12.4h-0.2c-10.8,0-19.4,13.3-19.5,13.4L34.6,49L33.4,46.8z"
			/>
		<path d="M55.6,21.8c10.5,0,18.6,9,20.6,11.9c2,3,2.4,8.6,0.7,11.2c0,0-9.1-13-21.2-13h-0.1h-0.1C43.7,31.9,34.8,46,34.8,46
			c-2.5-4.5-1.2-10.5,0.2-12.4C37.4,29.9,44.9,21.8,55.6,21.8 M55.6,18.8c-13.9,0-22.3,11.9-23.2,13.2c-2,3-3.3,10.3-0.3,15.6
			l2.5,4.4l2.7-4.3c0-0.1,8.2-12.7,18.2-12.7h0.1h0.2C66,35,74.3,46.6,74.4,46.7l2.6,3.7l2.4-3.8c2.5-3.9,1.6-10.9-0.7-14.5
			C76.2,28.4,67.3,18.8,55.6,18.8"/>
		<path class="st6" d="M76.2,33.7c-1.3-2-5.6-6.9-11.5-9.7c0.8,3.5,1.5,7.2,0.7,10.7C72.3,38.5,76.9,45,76.9,45
			C78.5,42.3,78.1,36.7,76.2,33.7"/>
	</g>
</g>
</svg>
