<?xml version="1.0" encoding="utf-8"?>
<!-- Generator: Adobe Illustrator 21.1.0, SVG Export Plug-In . SVG Version: 6.00 Build 0)  -->
<svg version="1.1" id="Layer_1" xmlns="http://www.w3.org/2000/svg" xmlns:xlink="http://www.w3.org/1999/xlink" x="0px" y="0px"
	 viewBox="0 0 111.2 110.9" style="enable-background:new 0 0 111.2 110.9;" xml:space="preserve">
<style type="text/css">
	.st0{clip-path:url(#SVGID_3_);}
	.st1{clip-path:url(#SVGID_5_);}
	.st2{clip-path:url(#SVGID_7_);fill:#FFFFFF;}
	.st3{clip-path:url(#SVGID_9_);}
	.st4{fill:#FFFFFF;}
	.st5{fill:none;stroke:#FFFFFF;stroke-miterlimit:10;}
	.st6{fill:none;stroke:#000000;stroke-width:4;stroke-miterlimit:10;}
</style>
<g>
	<g>
		<g>
			<g>
				<defs>
					<circle id="SVGID_2_" cx="55.6" cy="55.5" r="47.7"/>
				</defs>
				<clipPath id="SVGID_3_">
					<use xlink:href="#SVGID_2_"  style="overflow:visible;"/>
				</clipPath>
				<circle class="st0" cx="55.6" cy="55.5" r="47.7"/>
			</g>
			<g>
				<defs>
					<circle id="SVGID_4_" cx="55.6" cy="55.5" r="47.7"/>
				</defs>
				<clipPath id="SVGID_5_">
					<use xlink:href="#SVGID_4_"  style="overflow:visible;"/>
				</clipPath>
				<g class="st1">
					<g>
						<g>
							<g>
								<g>
									<g id="base">
										<g>
											<g>
												<g>
													<defs>
														<rect id="SVGID_6_" x="-19.5" y="-1.6" width="150.2" height="150.2"/>
													</defs>
													<clipPath id="SVGID_7_">
														<use xlink:href="#SVGID_6_"  style="overflow:visible;"/>
													</clipPath>
													<path class="st2" d="M55.1,80.6c-3.6,0-6.5-2.9-6.5-6.5v-5.7c0-3.6,2.9-6.5,6.5-6.5h0.7c3.6,0,6.5,2.9,6.5,6.5v5.7
														c0,3.6-2.9,6.5-6.5,6.5H55.1z"/>
												</g>
											</g>
										</g>
										<g id="body">
											<g>
												<g>
													<g>
														<g>
															<defs>
																<rect id="SVGID_8_" x="-19.5" y="-1.6" width="150.2" height="150.2"/>
															</defs>
															<clipPath id="SVGID_9_">
																<use xlink:href="#SVGID_8_"  style="overflow:visible;"/>
															</clipPath>
															<path class="st3" d="M55.8,63.4c2.7,0,5,2.2,5,5v5.7c0,2.7-2.2,5-5,5h-0.7c-2.7,0-5-2.2-5-5v-5.7c0-2.7,2.2-5,5-5
																H55.8 M55.8,60.4h-0.7c-4.4,0-8,3.6-8,8v5.7c0,4.4,3.6,8,8,8h0.7c4.4,0,8-3.6,8-8v-5.7C63.8,64,60.2,60.4,55.8,60.4"
																/>
														</g>
													</g>
												</g>
											</g>
											<path class="st4" d="M87.8,89.7c0,15.7-14.3,15.7-32.1,15.7c-17.7,0-32.1-1-32.1-15.7c0-7.3,9.3-13.5,23.1-15.2
												c0.8-0.1,1.4,0.3,1.8,1c1,2.1,2.6,4.8,7.2,4.8c4.9-0.1,6.4-3,7-4.6c0.3-0.9,1-1.3,1.8-1.2C78.4,76.1,87.8,82.3,87.8,89.7
												"/>
											<path d="M64.3,74.4c0.1,0,0.2,0,0.2,0c14,1.7,23.3,7.9,23.3,15.2c0,15.7-14.3,15.7-32.1,15.7c-17.7,0-32.1-1-32.1-15.7
												c0-7.3,9.3-13.5,23.1-15.2c0.1,0,0.2,0,0.3,0c0.6,0,1.2,0.3,1.5,1c1,2.1,2.6,4.8,7.1,4.8h0.1c4.9-0.1,6.4-3,7-4.6
												C63,74.8,63.6,74.4,64.3,74.4 M64.3,70.4c-2.4,0-3.4,1.5-4.4,3.9c-0.4,1-1.9,3.2-4.2,3.2h-0.1c-2.1,0-3.9-1.6-4.8-3.4
												c-0.9-2.1-1.7-3.5-3.9-3.5c-0.3,0-0.5,0-0.7,0.1c-16.1,2.1-26.6,9.5-26.6,19.1c0,8.5,4,14.2,12,17.1
												c6.6,2.4,15.5,2.6,24,2.6c9,0,17.5,0,23.9-2.1c8.1-2.7,12.1-8.6,12.1-17.5c0-9.7-10.6-17.3-26.9-19.2
												C64.7,70.5,64.5,70.4,64.3,70.4"/>
										</g>
									</g>
								</g>
							</g>
						</g>
						<g>
							<circle id="SVGID_1_" class="st5" cx="55.6" cy="55.5" r="47.7"/>
						</g>
					</g>
				</g>
			</g>
			<circle class="st6" cx="55.6" cy="55.5" r="47.7"/>
		</g>
	</g>
</g>
</svg>
