<svg enable-background="new 0 0 111.2 110.9" height="110.9" viewBox="0 0 111.2 110.9" width="111.2" xmlns="http://www.w3.org/2000/svg" xmlns:xlink="http://www.w3.org/1999/xlink"><defs><circle id="a" cx="55.6" cy="55.3" r="47.5"/><clipPath id="b"><use xlink:href="#a"/></clipPath></defs><g clip-path="url(#b)"><path d="m64.2 69.9v5.8c0 4.5-3.7 8.2-8.2 8.2h-.7c-4.5 0-8.2-3.7-8.2-8.2v-5.8c0-4.5 3.7-8.2 8.2-8.2h.7c4.6 0 8.3 3.7 8.2 8.2z"/><path d="m61.1 75.7v-5.8c0-2.8-2.3-5.1-5.1-5.1h-.7c-2.8 0-5.1 2.3-5.1 5.1v5.8c0 2.8 2.3 5.1 5.1 5.1h.7c2.8.1 5.1-2.2 5.1-5.1z" fill="#fff"/></g><g clip-path="url(#b)"><path d="m46.9 112.6c-6.2-.2-12.6-.4-18.3-3.2-5.6-2.7-8.8-7.8-9.5-13.9-.4-3.2-.2-6.4 1.2-9.3 1.3-2.7 3.4-4.8 5.7-6.5 5.7-4.1 12.5-5.7 19.2-6.9 1.6-.3 3.3-.4 4.5.7 1.1 1.1 1.5 2.6 2.2 3.8s2.1 2.7 3.7 2.5c1.6-.1 2.8-1.4 3.5-2.7.7-1.2 1.1-2.7 2.2-3.6 1.3-1.1 3.1-.9 4.7-.6 3.5.6 7.1 1.3 10.5 2.6 5.6 2 11.4 5.4 14.1 11 2.7 5.3 1.5 12.6-1.7 17.4-3.5 5.2-9.8 7.3-15.7 8.2-6.8 1-13.9.7-20.8.7-1.7-.1-3.5-.1-5.5-.2z"/><path d="m31.6 106.3c5.7 2.2 12.1 2.3 18.2 2.3 6.5.1 13.1.3 19.5-.3 5.4-.4 11.5-1.3 15.4-5.5 1.6-1.7 2.7-3.9 3.2-6.2.5-2.7.7-5.5-.4-8-2.2-4.8-7.5-7.6-12.2-9.3-2.9-1.1-6-1.8-9-2.3-1.2-.2-2.6-.5-3.4.5-.7 1-1 2-1.9 2.9-3.6 3.8-9.8 2.5-11.9-2.2-.5-1.1-1.3-1.6-2.6-1.5-1.6.2-3.1.5-4.7.9-3 .7-6 1.6-8.8 2.9-4.3 2.2-9.1 5.6-9.9 10.6-.7 5 1.2 10.3 5.4 13.3.8.8 2 1.4 3.1 1.9z" fill="#fff"/></g><use fill="none" stroke="#000" stroke-miterlimit="10" stroke-width="4" xlink:href="#a"/></svg>