<svg id="Layer_1" xmlns="http://www.w3.org/2000/svg" viewBox="0 0 111.2 110.9"><style>.st0{fill:#fff}.st1{fill:#4ab1e5}.st2{fill:none;stroke:#000;stroke-width:3;stroke-linecap:round;stroke-miterlimit:10}.st3{fill:#c7c6c8}.st4{fill:#a9a5a4}.st5{fill:#edeeef}.st6{fill:#d8d6d6}</style><g id="head_1_"><path class="st0" d="M35.3 56.7c-3.3 0-6.1-2.4-6.1-5.4s2.7-5.4 6.1-5.4c3.3 0 6.1 2.4 6.1 5.4s-2.7 5.4-6.1 5.4"/><path id="left_ear_1_" d="M35.3 47.4c2.5 0 4.6 1.7 4.6 3.9 0 2.1-2 3.9-4.6 3.9-2.5 0-4.6-1.7-4.6-3.9.1-2.2 2.1-3.9 4.6-3.9m0-3c-4.2 0-7.6 3.1-7.6 6.9 0 3.8 3.4 6.9 7.6 6.9s7.6-3.1 7.6-6.9c0-3.8-3.4-6.9-7.6-6.9"/><path class="st0" d="M75.9 56.7c-3.3 0-6.1-2.4-6.1-5.4s2.7-5.4 6.1-5.4c3.3 0 6.1 2.4 6.1 5.4s-2.8 5.4-6.1 5.4"/><path id="right_ear_1_" d="M75.9 47.4c2.5 0 4.6 1.7 4.6 3.9 0 2.1-2 3.9-4.6 3.9-2.5 0-4.6-1.7-4.6-3.9s2.1-3.9 4.6-3.9m0-3c-4.2 0-7.6 3.1-7.6 6.9 0 3.8 3.4 6.9 7.6 6.9s7.6-3.1 7.6-6.9-3.4-6.9-7.6-6.9"/><path id="jaw_3_" class="st0" d="M55.5 71.2c-11.7 0-21.2-9.5-21.2-21.2s9.5-21.2 21.2-21.2S76.7 38.3 76.7 50s-9.5 21.2-21.2 21.2"/><path id="jaw_2_" d="M55.5 30.8c10.6 0 19.2 8.6 19.2 19.2s-8.6 19.2-19.2 19.2S36.3 60.6 36.3 50s8.6-19.2 19.2-19.2m0-4c-12.8 0-23.2 10.4-23.2 23.2s10.4 23.2 23.2 23.2S78.7 62.8 78.7 50 68.3 26.8 55.5 26.8"/><g id="hair_1_"><path class="st1" d="M43.9 38.6s-2.4 19.2-6.6 18.5c-4.2-.8-1.7-9.8-1.7-9.8l8.3-8.7z"/><path class="st2" d="M43.9 38.6s-2.4 19.2-6.6 18.5c-4.2-.8-1.7-9.8-1.7-9.8l8.3-8.7z"/><path class="st1" d="M43.9 37.4s-1.2 7.8 5.9 7.8 26.1 1.2 25.4 10.2c1.3-.2 2.5-10.6 2.5-10.6s-20-24.7-32.6-8.1"/><path class="st2" d="M43.9 37.4s-1.2 7.8 5.9 7.8 26.1 1.2 25.4 10.2c1.3-.2 2.5-10.6 2.5-10.6s-20-24.7-32.6-8.1"/></g><g id="beanie_1_"><path class="st3" d="M74.4 35.1c-.4 0-.9-.1-1.4-.3 0 0-10.4-4.2-17-4.2s-17 4.2-17.1 4.2c-.3.2-.7.2-1 .2-.8 0-1.5-.3-1.9-.9-.5-.7-.7-1.7-.5-2.7.1-1 .6-7.5 3.3-10.8 3-3.7 9.3-7.9 17.4-7.9 8 0 15 4.7 17.4 8 2.1 2.9 2.8 7.6 3.1 9.9.1.4.1.7.1.9.2.8.2 2-.5 2.9-.6.5-1.2.7-1.9.7"/><path d="M56 14.2c7.6 0 14.1 4.5 16.2 7.4 2.3 3.1 2.7 9 2.9 10.2.2.8.1 1.8-.7 1.8-.2 0-.5-.1-.8-.2 0 0-10.6-4.3-17.6-4.3s-17.6 4.3-17.6 4.3c-.2.1-.4.1-.5.1-.9 0-1.2-1-1-1.9 0 0 .4-6.8 3-10 2.5-3.2 8.5-7.4 16.1-7.4m0-3c-8.6 0-15.3 4.6-18.5 8.5-2.9 3.6-3.5 10-3.6 11.5-.3 1.4.1 2.8.8 3.8.8 1 1.9 1.5 3.1 1.5.6 0 1.1-.1 1.7-.3.1-.1 10.2-4.1 16.5-4.1 6.1 0 15.7 3.8 16.4 4.1.7.3 1.3.4 2 .4 1.1 0 2.2-.5 2.9-1.4.8-1 1.1-2.4.8-4.1 0-.2-.1-.4-.1-.8-.3-2.4-1-7.4-3.3-10.6-2.5-3.2-9.7-8.5-18.7-8.5"/><path class="st4" d="M75.2 31.8c-.2-1.2-.6-7-2.9-10.2-1.6-2.2-5.7-5.3-11-6.7 1.4 5 1.5 10.1 1.5 15.1 5.6 1.3 10.9 3.4 10.9 3.4 1.5.8 1.7-.6 1.5-1.6"/><path class="st5" d="M33.4 46.8c-2.9-5.2-1.3-11.8.2-14 .9-1.3 8.8-12.6 21.9-12.6 11.1 0 19.7 9.3 21.8 12.6 2.3 3.5 2.7 9.8.7 12.9l-1.2 1.9-1.3-1.8c-.1-.1-8.9-12.4-19.9-12.4h-.2c-10.8 0-19.4 13.3-19.5 13.4L34.6 49l-1.2-2.2z"/><path d="M55.6 21.8c10.5 0 18.6 9 20.6 11.9 2 3 2.4 8.6.7 11.2 0 0-9.1-13-21.2-13h-.2C43.7 31.9 34.8 46 34.8 46c-2.5-4.5-1.2-10.5.2-12.4 2.4-3.7 9.9-11.8 20.6-11.8m0-3c-13.9 0-22.3 11.9-23.2 13.2-2 3-3.3 10.3-.3 15.6l2.5 4.4 2.7-4.3c0-.1 8.2-12.7 18.2-12.7H55.8C66 35 74.3 46.6 74.4 46.7l2.6 3.7 2.4-3.8c2.5-3.9 1.6-10.9-.7-14.5-2.5-3.7-11.4-13.3-23.1-13.3"/><path class="st6" d="M76.2 33.7c-1.3-2-5.6-6.9-11.5-9.7.8 3.5 1.5 7.2.7 10.7C72.3 38.5 76.9 45 76.9 45c1.6-2.7 1.2-8.3-.7-11.3"/></g></g></svg>