<svg id="Layer_1" xmlns="http://www.w3.org/2000/svg" xmlns:xlink="http://www.w3.org/1999/xlink" viewBox="0 0 111.2 110.9"><style>.st0{clip-path:url(#SVGID_5_)}.st1{clip-path:url(#SVGID_7_);fill:#fff}.st2{clip-path:url(#SVGID_9_)}.st3{fill:#fff}.st4,.st5{fill:none;stroke:#fff;stroke-miterlimit:10}.st5{stroke:#000;stroke-width:4}</style><defs><circle id="SVGID_2_" cx="55.6" cy="55.5" r="47.7"/></defs><clipPath id="SVGID_3_"><use xlink:href="#SVGID_2_" overflow="visible"/></clipPath><defs><circle id="SVGID_4_" cx="55.6" cy="55.5" r="47.7"/></defs><clipPath id="SVGID_5_"><use xlink:href="#SVGID_4_" overflow="visible"/></clipPath><g class="st0"><g id="base"><defs><path id="SVGID_6_" d="M-19.5-1.6h150.2v150.2H-19.5z"/></defs><clipPath id="SVGID_7_"><use xlink:href="#SVGID_6_" overflow="visible"/></clipPath><path class="st1" d="M55.1 80.6c-3.6 0-6.5-2.9-6.5-6.5v-5.7c0-3.6 2.9-6.5 6.5-6.5h.7c3.6 0 6.5 2.9 6.5 6.5v5.7c0 3.6-2.9 6.5-6.5 6.5h-.7z"/><g id="body"><defs><path id="SVGID_8_" d="M-19.5-1.6h150.2v150.2H-19.5z"/></defs><clipPath id="SVGID_9_"><use xlink:href="#SVGID_8_" overflow="visible"/></clipPath><path class="st2" d="M55.8 63.4c2.7 0 5 2.2 5 5v5.7c0 2.7-2.2 5-5 5h-.7c-2.7 0-5-2.2-5-5v-5.7c0-2.7 2.2-5 5-5h.7m0-3h-.7c-4.4 0-8 3.6-8 8v5.7c0 4.4 3.6 8 8 8h.7c4.4 0 8-3.6 8-8v-5.7c0-4.4-3.6-8-8-8"/><path class="st3" d="M87.8 89.7c0 15.7-14.3 15.7-32.1 15.7-17.7 0-32.1-1-32.1-15.7 0-7.3 9.3-13.5 23.1-15.2.8-.1 1.4.3 1.8 1 1 2.1 2.6 4.8 7.2 4.8 4.9-.1 6.4-3 7-4.6.3-.9 1-1.3 1.8-1.2 13.9 1.6 23.3 7.8 23.3 15.2"/><path d="M64.3 74.4h.2c14 1.7 23.3 7.9 23.3 15.2 0 15.7-14.3 15.7-32.1 15.7-17.7 0-32.1-1-32.1-15.7 0-7.3 9.3-13.5 23.1-15.2h.3c.6 0 1.2.3 1.5 1 1 2.1 2.6 4.8 7.1 4.8h.1c4.9-.1 6.4-3 7-4.6.3-.8.9-1.2 1.6-1.2m0-4c-2.4 0-3.4 1.5-4.4 3.9-.4 1-1.9 3.2-4.2 3.2h-.1c-2.1 0-3.9-1.6-4.8-3.4-.9-2.1-1.7-3.5-3.9-3.5-.3 0-.5 0-.7.1-16.1 2.1-26.6 9.5-26.6 19.1 0 8.5 4 14.2 12 17.1 6.6 2.4 15.5 2.6 24 2.6 9 0 17.5 0 23.9-2.1 8.1-2.7 12.1-8.6 12.1-17.5 0-9.7-10.6-17.3-26.9-19.2 0-.2-.2-.3-.4-.3"/></g></g><circle id="SVGID_1_" class="st4" cx="55.6" cy="55.5" r="47.7"/></g><circle class="st5" cx="55.6" cy="55.5" r="47.7"/></svg>