<svg id="Layer_1" xmlns="http://www.w3.org/2000/svg" xmlns:xlink="http://www.w3.org/1999/xlink" viewBox="0 0 140 140"><style>.st0{clip-path:url(#SVGID_2_)}.st1{fill:#fff}.st2{fill:#010101}.st3{fill:#030303}.st4{clip-path:url(#SVGID_4_);fill:none;stroke:#010101;stroke-width:4;stroke-miterlimit:10}</style><defs><circle id="SVGID_1_" cx="70" cy="70" r="70"/></defs><clipPath id="SVGID_2_"><use xlink:href="#SVGID_1_" overflow="visible"/></clipPath><g id="head_2_" class="st0"><g id="beanie_copy_4_1_"><path class="st1" d="M70 88.4c-3.6 0-6.5-2.9-6.5-6.5v-5.6c0-3.6 2.9-6.5 6.5-6.5h.7c3.6 0 6.5 2.9 6.5 6.5v5.6c0 3.6-2.9 6.5-6.5 6.5H70z"/><path class="st2" d="M70.7 71.3c2.8 0 5 2.2 5 5v5.6c0 2.8-2.2 5-5 5H70c-2.8 0-5-2.2-5-5v-5.6c0-2.8 2.2-5 5-5h.7m0-3H70c-4.4 0-8 3.6-8 8v5.6c0 4.4 3.6 8 8 8h.7c4.4 0 8-3.6 8-8v-5.6c0-4.4-3.6-8-8-8z"/><path class="st1" d="M102.7 97.5c0 15.7-14.3 15.7-32 15.7s-32-1.1-32-15.7c0-7.3 9.2-13.4 23.1-15.2.7-.1 1.4.3 1.8 1 1 2.1 2.6 4.8 7.2 4.8 4.9 0 6.4-3 7-4.6.3-.9 1-1.3 1.8-1.2 13.7 1.7 23.1 7.8 23.1 15.2z"/><path class="st2" d="M79.2 82.2h.2c14 1.7 23.3 7.9 23.3 15.2 0 15.7-14.3 15.7-32 15.7s-32-1.1-32-15.7c0-7.3 9.2-13.4 23.1-15.2h.2c.6 0 1.2.3 1.5 1 1 2.1 2.6 4.8 7.1 4.8h.1c4.9 0 6.4-3 7-4.6.2-.7.8-1.2 1.5-1.2m0-4c-2.4 0-3.5 1.5-4.4 3.8-.4 1.1-1.8 3.1-4.2 3.2h-.1c-2.1 0-3.9-1.6-4.8-3.4-1-2-1.7-3.5-3.9-3.5h-.7c-16.2 2-26.6 9.5-26.6 19.1 0 8.5 4 14.2 12 17.1 6.6 2.4 15.5 2.6 24 2.6 9 0 17.5 0 23.9-2.2 8-2.7 12.1-8.6 12.1-17.5 0-9.7-10.5-17.2-26.8-19.2-.1.1-.3 0-.5 0z"/><path class="st1" d="M23.5 144.4c-2 0-3.5-1.6-3.5-3.5v-2.2c0-2 1.6-3.5 3.5-3.5h9.2c2 0 3.5 1.6 3.5 3.5v2.2c0 2-1.6 3.5-3.5 3.5h-9.2z"/><path class="st3" d="M32.7 137.1c.8 0 1.5.7 1.5 1.5v2.2c0 .8-.7 1.5-1.5 1.5h-9.2c-.8 0-1.5-.7-1.5-1.5v-2.2c0-.8.7-1.5 1.5-1.5h9.2m0-4h-9.2c-3.1 0-5.5 2.5-5.5 5.5v2.2c0 3.1 2.5 5.5 5.5 5.5h9.2c3.1 0 5.5-2.5 5.5-5.5v-2.2c.1-3-2.4-5.5-5.5-5.5z"/><g><path class="st1" d="M107.3 144.4c-2 0-3.5-1.6-3.5-3.5v-2.2c0-2 1.6-3.5 3.5-3.5h9.2c2 0 3.5 1.6 3.5 3.5v2.2c0 2-1.6 3.5-3.5 3.5h-9.2z"/><path class="st3" d="M116.5 137.1c.8 0 1.5.7 1.5 1.5v2.2c0 .8-.7 1.5-1.5 1.5h-9.2c-.8 0-1.5-.7-1.5-1.5v-2.2c0-.8.7-1.5 1.5-1.5h9.2m0-4h-9.2c-3.1 0-5.5 2.5-5.5 5.5v2.2c0 3.1 2.5 5.5 5.5 5.5h9.2c3.1 0 5.5-2.5 5.5-5.5v-2.2c0-3-2.5-5.5-5.5-5.5z"/></g><g><path class="st1" d="M31.3 142.1c-1.8 0-3.3-1.5-3.3-3.3V96c0-1.8 1.5-3.3 3.3-3.3h78.5c1.8 0 3.3 1.5 3.3 3.3v42.7c0 1.8-1.5 3.3-3.3 3.3H31.3v.1z"/><path class="st2" d="M109.7 94.8c.7 0 1.3.6 1.3 1.3v42.7c0 .7-.6 1.3-1.3 1.3H31.3c-.7 0-1.3-.6-1.3-1.3V96c0-.7.6-1.3 1.3-1.3h78.4m0-3.9H31.3c-2.9 0-5.3 2.4-5.3 5.3v42.7c0 2.9 2.4 5.3 5.3 5.3h78.5c2.9 0 5.3-2.4 5.3-5.3V96c-.1-2.9-2.5-5.2-5.4-5.2z"/></g></g><path id="apple-logo_1_" class="st2" d="M75.4 119.9c-.2.5-.4.9-.7 1.3-.4.5-.7.9-.9 1.1-.4.3-.8.5-1.2.5-.3 0-.7-.1-1.1-.3-.4-.2-.8-.3-1.2-.3s-.8.1-1.2.3c-.4.2-.8.3-1.1.3-.4 0-.8-.2-1.2-.5-.3-.2-.6-.6-1-1.2s-.8-1.3-1-2c-.3-.8-.4-1.7-.4-2.4 0-.9.2-1.7.6-2.3.3-.5.7-.9 1.2-1.2.5-.3 1.1-.5 1.7-.5.3 0 .8.1 1.3.3.5.2.9.3 1 .3s.5-.1 1.1-.4c.6-.2 1.1-.3 1.5-.3 1.1.1 2 .5 2.5 1.3-1 .6-1.5 1.5-1.5 2.6 0 .9.3 1.6.9 2.1.3.3.6.5.9.6 0 .3-.1.5-.2.7zm-2.6-10.3c0 .7-.2 1.3-.7 1.9-.6.7-1.3 1.1-2.1 1v-.3c0-.6.3-1.3.8-1.9.2-.3.6-.5 1-.7s.7-.3 1.1-.3c-.1.2-.1.2-.1.3z"/></g><g><defs><circle id="SVGID_3_" cx="70" cy="70" r="70"/></defs><clipPath id="SVGID_4_"><use xlink:href="#SVGID_3_" overflow="visible"/></clipPath><circle class="st4" cx="70" cy="70" r="68.1"/></g></svg>