<?xml version="1.0" encoding="utf-8"?>
<!-- Generator: Adobe Illustrator 21.1.0, SVG Export Plug-In . SVG Version: 6.00 Build 0)  -->
<svg version="1.1" id="Layer_1" xmlns="http://www.w3.org/2000/svg" xmlns:xlink="http://www.w3.org/1999/xlink" x="0px" y="0px"
	 viewBox="0 0 150 150" style="enable-background:new 0 0 150 150;" xml:space="preserve">
<style type="text/css">
	.st0{clip-path:url(#SVGID_2_);fill:#FFFFFF;}
	.st1{clip-path:url(#SVGID_4_);}
	.st2{fill:#FFFFFF;}
	.st3{fill:#FFFFFF;stroke:#000000;stroke-width:3;stroke-miterlimit:10;}
	.st4{stroke:#000000;stroke-miterlimit:10;}
</style>
<g id="base">
	<g id="body">
		<g>
			<g>
				<g>
					<g>
						<g>
							<defs>
								<rect id="SVGID_1_" x="-12.5" y="-11" width="175" height="175"/>
							</defs>
							<clipPath id="SVGID_2_">
								<use xlink:href="#SVGID_1_"  style="overflow:visible;"/>
							</clipPath>
							<path class="st0" d="M74.4,84.8c-4.2,0-7.6-3.4-7.6-7.6v-6.6c0-4.2,3.4-7.6,7.6-7.6h0.8c4.2,0,7.6,3.4,7.6,7.6v6.6
								c0,4.2-3.4,7.6-7.6,7.6H74.4z"/>
						</g>
					</g>
				</g>
			</g>
			<g>
				<g>
					<g>
						<g>
							<defs>
								<rect id="SVGID_3_" x="-12.5" y="-11" width="175" height="175"/>
							</defs>
							<clipPath id="SVGID_4_">
								<use xlink:href="#SVGID_3_"  style="overflow:visible;"/>
							</clipPath>
							<path class="st1" d="M75.2,64.8c3.2,0,5.8,2.6,5.8,5.8v6.6c0,3.2-2.6,5.8-5.8,5.8h-0.8c-3.2,0-5.8-2.6-5.8-5.8v-6.6
								c0-3.2,2.6-5.8,5.8-5.8H75.2 M75.2,61.3h-0.8c-5.1,0-9.3,4.2-9.3,9.3v6.6c0,5.1,4.2,9.3,9.3,9.3h0.8c5.1,0,9.3-4.2,9.3-9.3
								v-6.6C84.6,65.5,80.4,61.3,75.2,61.3"/>
						</g>
					</g>
				</g>
			</g>
		</g>
		<path class="st2" d="M112.5,95.4c0,18.3-16.7,18.3-37.4,18.3c-20.6,0-37.4-1.2-37.4-18.3c0-8.5,10.8-15.7,26.9-17.7
			c0.9-0.1,1.6,0.3,2.1,1.2c1.2,2.5,3,5.6,8.4,5.6c5.7-0.1,7.4-3.5,8.1-5.4c0.4-1,1.2-1.5,2.1-1.4C101.6,79.6,112.5,86.8,112.5,95.4
			"/>
		<path d="M85.1,77.6c0.1,0,0.2,0,0.2,0c16.3,2,27.2,9.2,27.2,17.7c0,18.3-16.7,18.3-37.4,18.3c-20.6,0-37.4-1.2-37.4-18.3
			c0-8.5,10.8-15.7,26.9-17.7c0.1,0,0.2,0,0.3,0c0.7,0,1.4,0.4,1.8,1.2c1.2,2.4,3,5.6,8.3,5.6h0.1c5.7-0.1,7.4-3.5,8.1-5.4
			C83.6,78.1,84.3,77.6,85.1,77.6 M85.1,72.9c-2.8,0-4,1.7-5.1,4.5c-0.5,1.2-2.2,3.7-4.9,3.7H75c-2.4,0-4.6-1.9-5.6-4
			c-1.1-2.4-2-4.1-4.5-4.1c-0.3,0-0.6,0-0.8,0.1c-18.8,2.4-31,11.1-31,22.3c0,9.9,4.7,16.6,14,19.9c7.7,2.8,18.1,3,28,3
			c10.5,0,20.4,0,27.9-2.5c9.4-3.2,14.1-10,14.1-20.4c0-11.3-12.3-20.1-31.3-22.4C85.6,73,85.4,72.9,85.1,72.9"/>
		<path class="st3" d="M127.3,139.5c0,2.1-1.5,3.7-3.4,3.7H26.1c-1.9,0-3.5-1.7-3.5-3.7V90.9c0-2.1,1.6-3.7,3.5-3.7h97.7
			c1.9,0,3.5,1.7,3.5,3.7L127.3,139.5L127.3,139.5z"/>
		<path d="M82.4,120c-0.3,0.6-0.6,1.1-0.9,1.6c-0.5,0.7-0.9,1.2-1.2,1.4c-0.5,0.4-1,0.6-1.5,0.7c-0.4,0-0.8-0.1-1.4-0.3
			c-0.5-0.2-1-0.3-1.5-0.3s-1,0.1-1.5,0.3c-0.5,0.2-1,0.3-1.3,0.3c-0.5,0-1-0.2-1.5-0.7c-0.3-0.3-0.7-0.8-1.2-1.5s-1-1.6-1.3-2.6
			c-0.4-1.1-0.5-2.1-0.5-3.1c0-1.1,0.2-2.1,0.7-2.9c0.4-0.7,0.9-1.2,1.5-1.6s1.3-0.6,2.1-0.6c0.4,0,0.9,0.1,1.6,0.4
			c0.7,0.2,1.1,0.4,1.3,0.4c0.1,0,0.6-0.1,1.4-0.4s1.4-0.4,1.9-0.3c1.4,0.1,2.5,0.7,3.2,1.7c-1.3,0.8-1.9,1.8-1.9,3.2
			c0,1.1,0.4,2,1.2,2.7c0.3,0.3,0.7,0.6,1.2,0.8C82.6,119.5,82.5,119.7,82.4,120L82.4,120z M79.1,107.1c0,0.8-0.3,1.6-0.9,2.4
			c-0.7,0.9-1.6,1.4-2.6,1.3c0-0.1,0-0.2,0-0.3c0-0.8,0.4-1.7,1-2.4c0.3-0.4,0.7-0.7,1.2-0.9c0.5-0.2,0.9-0.4,1.4-0.4
			C79.1,106.9,79.1,107,79.1,107.1L79.1,107.1z"/>
	</g>
	<path class="st4" d="M125.3,149.1H24.6c-1.1,0-2-0.9-2-2l0,0c0-1.1,0.9-2,2-2h100.7c1.1,0,2,0.9,2,2l0,0
		C127.3,148.2,126.5,149.1,125.3,149.1z"/>
</g>
</svg>
