<svg id="Layer_1" xmlns="http://www.w3.org/2000/svg" viewBox="0 0 105 125"><style>.st0{fill:#fff}.st1{fill:#020202}.st2{fill:#3ab0e5;stroke:#050505;stroke-width:3;stroke-linecap:round;stroke-miterlimit:10}.st3{fill:#bcbdbf}.st4{fill:#a0a0a0}.st5{fill:#e6e7e7}.st6{fill:#cececd}.st7{fill:#231f20}</style><g id="head"><g id="beanie_copy_4"><path class="st0" d="M52.5 72.1c-3.6 0-6.5-2.9-6.5-6.5V60c0-3.6 2.9-6.5 6.5-6.5h.7c3.6 0 6.5 2.9 6.5 6.5v5.6c0 3.6-2.9 6.5-6.5 6.5h-.7z"/><path d="M53.2 55c2.8 0 5 2.2 5 5v5.6c0 2.8-2.2 5-5 5h-.7c-2.8 0-5-2.2-5-5V60c0-2.8 2.2-5 5-5h.7m0-3h-.7c-4.4 0-8 3.6-8 8v5.6c0 4.4 3.6 8 8 8h.7c4.4 0 8-3.6 8-8V60c0-4.4-3.6-8-8-8z"/><path class="st0" d="M85.2 81.2c0 15.7-14.3 15.7-32 15.7s-32-1.1-32-15.7c0-7.3 9.2-13.4 23.1-15.2.7-.1 1.4.3 1.8 1 1 2.1 2.6 4.8 7.2 4.8 4.9 0 6.4-3 7-4.6.3-.9 1-1.3 1.8-1.2 13.7 1.7 23.1 7.8 23.1 15.2z"/><path d="M61.7 65.9h.2c14 1.7 23.3 7.9 23.3 15.2 0 15.7-14.3 15.7-32 15.7s-32-1.1-32-15.7c0-7.3 9.2-13.4 23.1-15.2h.2c.6 0 1.2.3 1.5 1 1 2.1 2.6 4.8 7.1 4.8h.1c4.9 0 6.4-3 7-4.6.2-.7.8-1.2 1.5-1.2m0-4c-2.4 0-3.5 1.5-4.4 3.8-.4 1.1-1.8 3.1-4.2 3.2H53c-2.1 0-3.9-1.6-4.8-3.4-1-2-1.7-3.5-3.9-3.5h-.7C27.4 64 17 71.5 17 81.1c0 8.5 4 14.2 12 17.1 6.6 2.4 15.5 2.6 24 2.6 9 0 17.5 0 23.9-2.2C84.9 95.9 89 90 89 81.1c0-9.7-10.5-17.2-26.8-19.2-.1.1-.3 0-.5 0z"/><path class="st0" d="M6 128.1c-2 0-3.5-1.6-3.5-3.5v-2.2c0-2 1.6-3.5 3.5-3.5h9.2c2 0 3.5 1.6 3.5 3.5v2.2c0 2-1.6 3.5-3.5 3.5H6z"/><path class="st1" d="M15.2 120.8c.8 0 1.5.7 1.5 1.5v2.2c0 .8-.7 1.5-1.5 1.5H6c-.8 0-1.5-.7-1.5-1.5v-2.2c0-.8.7-1.5 1.5-1.5h9.2m0-4H6c-3.1 0-5.5 2.5-5.5 5.5v2.2C.5 127.6 3 130 6 130h9.2c3.1 0 5.5-2.5 5.5-5.5v-2.2c.1-3-2.4-5.5-5.5-5.5z"/><g><path class="st0" d="M89.8 128.1c-2 0-3.5-1.6-3.5-3.5v-2.2c0-2 1.6-3.5 3.5-3.5H99c2 0 3.5 1.6 3.5 3.5v2.2c0 2-1.6 3.5-3.5 3.5h-9.2z"/><path class="st1" d="M99 120.8c.8 0 1.5.7 1.5 1.5v2.2c0 .8-.7 1.5-1.5 1.5h-9.2c-.8 0-1.5-.7-1.5-1.5v-2.2c0-.8.7-1.5 1.5-1.5H99m0-4h-9.2c-3.1 0-5.5 2.5-5.5 5.5v2.2c0 3.1 2.5 5.5 5.5 5.5H99c3.1 0 5.5-2.5 5.5-5.5v-2.2c0-3-2.5-5.5-5.5-5.5z"/></g><g><path class="st0" d="M13.8 125.8c-1.8 0-3.3-1.5-3.3-3.3V79.7c0-1.8 1.5-3.3 3.3-3.3h78.5c1.8 0 3.3 1.5 3.3 3.3v42.7c0 1.8-1.5 3.3-3.3 3.3H13.8v.1z"/><path d="M92.2 78.5c.7 0 1.3.6 1.3 1.3v42.7c0 .7-.6 1.3-1.3 1.3H13.8c-.7 0-1.3-.6-1.3-1.3V79.7c0-.7.6-1.3 1.3-1.3h78.4m0-3.9H13.8c-2.9 0-5.3 2.4-5.3 5.3v42.7c0 2.9 2.4 5.3 5.3 5.3h78.5c2.9 0 5.3-2.4 5.3-5.3V79.7c-.1-2.9-2.5-5.2-5.4-5.2z"/></g></g><path id="apple-logo" d="M57.9 103.6c-.2.5-.4.9-.7 1.3-.4.5-.7.9-.9 1.1-.4.3-.8.5-1.2.5-.3 0-.7-.1-1.1-.3-.4-.2-.8-.3-1.2-.3-.4 0-.8.1-1.2.3-.4.2-.8.3-1.1.3-.4 0-.8-.2-1.2-.5-.3-.2-.6-.6-1-1.2s-.8-1.3-1-2c-.3-.8-.4-1.7-.4-2.4 0-.9.2-1.7.6-2.3.3-.5.7-.9 1.2-1.2.5-.3 1.1-.5 1.7-.5.3 0 .8.1 1.3.3.5.2.9.3 1 .3.1 0 .5-.1 1.1-.4.6-.2 1.1-.3 1.5-.3 1.1.1 2 .5 2.5 1.3-1 .6-1.5 1.5-1.5 2.6 0 .9.3 1.6.9 2.1.3.3.6.5.9.6 0 .3-.1.5-.2.7zm-2.6-10.3c0 .7-.2 1.3-.7 1.9-.6.7-1.3 1.1-2.1 1v-.3c0-.6.3-1.3.8-1.9.2-.3.6-.5 1-.7.4-.2.7-.3 1.1-.3-.1.2-.1.2-.1.3z"/></g></svg>