<svg enable-background="new 0 0 150 150" height="150" viewBox="0 0 150 150" width="150" xmlns="http://www.w3.org/2000/svg"><path d="m84.7 71.6v6.6c0 5.1-4.2 9.3-9.3 9.3h-.8c-5.1 0-9.3-4.2-9.3-9.3v-6.6c0-5.1 4.2-9.3 9.3-9.3h.8c5.2 0 9.4 4.2 9.3 9.3z"/><path d="m81.2 78.2v-6.6c0-3.2-2.6-5.8-5.8-5.8h-.8c-3.2 0-5.8 2.6-5.8 5.8v6.6c0 3.2 2.6 5.8 5.8 5.8h.8c3.2 0 5.8-2.6 5.8-5.8z" fill="#fff"/><path d="m65.2 118.8c-7-.2-14.3-.5-20.7-3.6-6.3-3.1-10-8.8-10.8-15.7-.4-3.6-.2-7.2 1.4-10.5 1.5-3 3.8-5.4 6.5-7.4 6.4-4.6 14.1-6.5 21.7-7.8 1.8-.3 3.7-.5 5.1.8 1.3 1.2 1.7 2.9 2.5 4.3s2.4 3 4.2 2.8c1.8-.1 3.2-1.6 4-3.1.8-1.4 1.2-3 2.5-4.1 1.5-1.3 3.5-1 5.3-.7 4 .7 8 1.5 11.9 2.9 6.3 2.3 12.9 6.1 16 12.4 3 6 1.7 14.2-1.9 19.7-4 5.9-11.1 8.3-17.8 9.3-7.7 1.1-15.7.8-23.5.8-2.1 0-4.2 0-6.4-.1z"/><path d="m47.8 111.6c6.5 2.5 13.7 2.6 20.6 2.6 7.4.1 14.8.3 22.1-.3 6.1-.5 13-1.5 17.4-6.2 1.8-1.9 3-4.4 3.6-7 .6-3 .8-6.2-.5-9.1-2.5-5.4-8.5-8.6-13.8-10.5-3.3-1.2-6.8-2-10.2-2.6-1.4-.2-2.9-.6-3.9.6-.8 1.1-1.1 2.3-2.1 3.3-4.1 4.3-11.1 2.8-13.5-2.5-.6-1.3-1.5-1.8-2.9-1.7-1.8.2-3.5.6-5.3 1-3.4.8-6.8 1.8-10 3.3-4.9 2.5-10.3 6.3-11.2 12-.8 5.7 1.4 11.7 6.1 15.1 1.1.8 2.4 1.5 3.6 2z" fill="#fff"/><path d="m125.3 149.1h-100.7c-1.1 0-2-.9-2-2s.9-2 2-2h100.7c1.1 0 2 .9 2 2s-.8 2-2 2z" stroke="#000" stroke-miterlimit="10"/><path d="m127.3 139.5c0 2.1-1.5 3.7-3.4 3.7h-97.8c-1.9 0-3.5-1.7-3.5-3.7v-48.6c0-2.1 1.6-3.7 3.5-3.7h97.7c1.9 0 3.5 1.7 3.5 3.7z" fill="#fff" stroke="#000" stroke-miterlimit="10" stroke-width="3"/><path d="m82.4 120c-.3.6-.6 1.1-.9 1.6-.5.7-.9 1.2-1.2 1.4-.5.4-1 .6-1.5.7-.4 0-.8-.1-1.4-.3-.5-.2-1-.3-1.5-.3s-1 .1-1.5.3-1 .3-1.3.3c-.5 0-1-.2-1.5-.7-.3-.3-.7-.8-1.2-1.5s-1-1.6-1.3-2.6c-.4-1.1-.5-2.1-.5-3.1 0-1.1.2-2.1.7-2.9.4-.7.9-1.2 1.5-1.6s1.3-.6 2.1-.6c.4 0 .9.1 1.6.4.7.2 1.1.4 1.3.4.1 0 .6-.1 1.4-.4s1.4-.4 1.9-.3c1.4.1 2.5.7 3.2 1.7-1.3.8-1.9 1.8-1.9 3.2 0 1.1.4 2 1.2 2.7.3.3.7.6 1.2.8-.2.3-.3.5-.4.8zm-3.3-12.9c0 .8-.3 1.6-.9 2.4-.7.9-1.6 1.4-2.6 1.3 0-.1 0-.2 0-.3 0-.8.4-1.7 1-2.4.3-.4.7-.7 1.2-.9s.9-.4 1.4-.4c-.1.1-.1.2-.1.3z"/></svg>