<svg id="Layer_1" xmlns="http://www.w3.org/2000/svg" xmlns:xlink="http://www.w3.org/1999/xlink" viewBox="0 0 150 150"><style>.st0{clip-path:url(#SVGID_2_);fill:#fff}.st1{clip-path:url(#SVGID_4_)}.st2,.st3{fill:#fff}.st3{stroke-width:3}.st3,.st4{stroke:#000;stroke-miterlimit:10}</style><g id="base"><g id="body"><defs><path id="SVGID_1_" d="M-12.5-11h175v175h-175z"/></defs><clipPath id="SVGID_2_"><use xlink:href="#SVGID_1_" overflow="visible"/></clipPath><path class="st0" d="M74.4 84.8c-4.2 0-7.6-3.4-7.6-7.6v-6.6c0-4.2 3.4-7.6 7.6-7.6h.8c4.2 0 7.6 3.4 7.6 7.6v6.6c0 4.2-3.4 7.6-7.6 7.6h-.8z"/><defs><path id="SVGID_3_" d="M-12.5-11h175v175h-175z"/></defs><clipPath id="SVGID_4_"><use xlink:href="#SVGID_3_" overflow="visible"/></clipPath><path class="st1" d="M75.2 64.8c3.2 0 5.8 2.6 5.8 5.8v6.6c0 3.2-2.6 5.8-5.8 5.8h-.8c-3.2 0-5.8-2.6-5.8-5.8v-6.6c0-3.2 2.6-5.8 5.8-5.8h.8m0-3.5h-.8c-5.1 0-9.3 4.2-9.3 9.3v6.6c0 5.1 4.2 9.3 9.3 9.3h.8c5.1 0 9.3-4.2 9.3-9.3v-6.6c.1-5.1-4.1-9.3-9.3-9.3"/><path class="st2" d="M112.5 95.4c0 18.3-16.7 18.3-37.4 18.3-20.6 0-37.4-1.2-37.4-18.3 0-8.5 10.8-15.7 26.9-17.7.9-.1 1.6.3 2.1 1.2 1.2 2.5 3 5.6 8.4 5.6 5.7-.1 7.4-3.5 8.1-5.4.4-1 1.2-1.5 2.1-1.4 16.3 1.9 27.2 9.1 27.2 17.7"/><path d="M85.1 77.6h.2c16.3 2 27.2 9.2 27.2 17.7 0 18.3-16.7 18.3-37.4 18.3-20.6 0-37.4-1.2-37.4-18.3 0-8.5 10.8-15.7 26.9-17.7h.3c.7 0 1.4.4 1.8 1.2 1.2 2.4 3 5.6 8.3 5.6h.1c5.7-.1 7.4-3.5 8.1-5.4.4-.9 1.1-1.4 1.9-1.4m0-4.7c-2.8 0-4 1.7-5.1 4.5-.5 1.2-2.2 3.7-4.9 3.7H75c-2.4 0-4.6-1.9-5.6-4-1.1-2.4-2-4.1-4.5-4.1-.3 0-.6 0-.8.1-18.8 2.4-31 11.1-31 22.3 0 9.9 4.7 16.6 14 19.9 7.7 2.8 18.1 3 28 3 10.5 0 20.4 0 27.9-2.5 9.4-3.2 14.1-10 14.1-20.4 0-11.3-12.3-20.1-31.3-22.4-.2 0-.4-.1-.7-.1"/><path class="st3" d="M127.3 139.5c0 2.1-1.5 3.7-3.4 3.7H26.1c-1.9 0-3.5-1.7-3.5-3.7V90.9c0-2.1 1.6-3.7 3.5-3.7h97.7c1.9 0 3.5 1.7 3.5 3.7v48.6z"/><path d="M82.4 120c-.3.6-.6 1.1-.9 1.6-.5.7-.9 1.2-1.2 1.4-.5.4-1 .6-1.5.7-.4 0-.8-.1-1.4-.3-.5-.2-1-.3-1.5-.3s-1 .1-1.5.3c-.5.2-1 .3-1.3.3-.5 0-1-.2-1.5-.7-.3-.3-.7-.8-1.2-1.5s-1-1.6-1.3-2.6c-.4-1.1-.5-2.1-.5-3.1 0-1.1.2-2.1.7-2.9.4-.7.9-1.2 1.5-1.6s1.3-.6 2.1-.6c.4 0 .9.1 1.6.4.7.2 1.1.4 1.3.4.1 0 .6-.1 1.4-.4s1.4-.4 1.9-.3c1.4.1 2.5.7 3.2 1.7-1.3.8-1.9 1.8-1.9 3.2 0 1.1.4 2 1.2 2.7.3.3.7.6 1.2.8-.2.3-.3.5-.4.8zm-3.3-12.9c0 .8-.3 1.6-.9 2.4-.7.9-1.6 1.4-2.6 1.3v-.3c0-.8.4-1.7 1-2.4.3-.4.7-.7 1.2-.9.5-.2.9-.4 1.4-.4-.1.1-.1.2-.1.3z"/></g><path class="st4" d="M125.3 149.1H24.6c-1.1 0-2-.9-2-2s.9-2 2-2h100.7c1.1 0 2 .9 2 2s-.8 2-2 2z"/></g></svg>