<svg id="Layer_1" xmlns="http://www.w3.org/2000/svg" viewBox="0 0 140 140"><style>.st0{fill:#fff}.st1{fill:#010101}.st2{fill:#3cafe4;stroke:#070707;stroke-width:3;stroke-linecap:round;stroke-miterlimit:10}.st3{fill:#bcbdbf}.st4{fill:#9f9f9f}.st5{fill:#e6e7e7}.st6{fill:#cfcecd}</style><g id="head_1_"><ellipse class="st0" cx="49.8" cy="57.6" rx="6.1" ry="5.4"/><path class="st1" d="M49.8 53.7c2.5 0 4.6 1.7 4.6 3.9 0 2.1-2 3.9-4.6 3.9s-4.6-1.7-4.6-3.9c.1-2.1 2.1-3.9 4.6-3.9m0-3c-4.2 0-7.6 3.1-7.6 6.9 0 3.8 3.4 6.9 7.6 6.9s7.6-3.1 7.6-6.9c0-3.8-3.4-6.9-7.6-6.9z"/><ellipse class="st0" cx="90.2" cy="57.6" rx="6.1" ry="5.4"/><path class="st1" d="M90.2 53.7c2.5 0 4.6 1.7 4.6 3.9 0 2.1-2 3.9-4.6 3.9s-4.6-1.7-4.6-3.9c.2-2.1 2.2-3.9 4.6-3.9m0-3c-4.2 0-7.6 3.1-7.6 6.9 0 3.8 3.4 6.9 7.6 6.9s7.6-3.1 7.6-6.9-3.3-6.9-7.6-6.9z"/><g id="head_basic_2_"><path class="st0" d="M69.9 77.5c-11.7 0-21.2-9.5-21.2-21.2s9.5-21.2 21.2-21.2 21.2 9.5 21.2 21.2-9.5 21.2-21.2 21.2z"/><path class="st1" d="M69.9 37.2c10.6 0 19.2 8.6 19.2 19.2s-8.6 19.2-19.2 19.2S50.7 67 50.7 56.4c.1-10.6 8.7-19.2 19.2-19.2m0-4c-12.8 0-23.2 10.4-23.2 23.2s10.4 23.2 23.2 23.2 23.2-10.4 23.2-23.2-10.4-23.2-23.2-23.2z"/></g><path class="st2" d="M58.2 45s-2.4 19.2-6.6 18.4c-4.2-.8-1.7-9.8-1.7-9.8l8.3-8.6z"/><path class="st2" d="M58.2 43.7s-1.2 7.8 5.9 7.8 26.1 1.2 25.4 10.2c1.3-.2 2.5-10.6 2.5-10.6S72.2 26.5 59.6 43"/><path class="st3" d="M88.8 42c-.5 0-1-.1-1.6-.4 0 0-10.3-4.1-16.8-4.1s-16.7 4.1-16.8 4.2c-.4.2-.9.3-1.3.3-.9 0-1.8-.4-2.3-1.1-.6-.8-.9-1.9-.6-3 .1-1.3.6-7.6 3.4-11 3-3.7 9.5-8.1 17.7-8.1 8.6 0 15.5 5 17.8 8.2 2.2 3 2.8 7.8 3.2 10.1.1.4.1.7.1.9.2.9.2 2.3-.6 3.3-.5.3-1.3.7-2.2.7z"/><path class="st1" d="M70.5 20.6c7.6 0 14.1 4.5 16.2 7.4 2.3 3.1 2.7 9 2.9 10.2.2.8.1 1.8-.7 1.8-.2 0-.5-.1-.8-.2 0 0-10.6-4.3-17.6-4.3s-17.6 4.3-17.6 4.3c-.2.1-.4.1-.5.1-.9 0-1.2-1-1-1.9 0 0 .4-6.8 2.9-10s8.6-7.4 16.2-7.4m0-4c-8.9 0-16 4.8-19.3 8.8-3.1 3.8-3.7 10.2-3.8 12-.3 1.6.1 3.3 1.1 4.5.9 1.2 2.4 1.9 3.9 1.9.7 0 1.4-.1 2-.4 2.8-1.1 11.1-4 16.1-4s13.2 2.9 16 4c.8.3 1.6.5 2.3.5 1.4 0 2.8-.6 3.7-1.7 1-1.3 1.4-3 1-4.9 0-.1-.1-.4-.1-.7-.3-2.5-1-7.6-3.5-11-2.7-3.5-10.1-9-19.4-9z"/><g><path class="st4" d="M89.6 38.2c-.2-1.2-.6-7-2.9-10.2-1.6-2.2-5.7-5.3-11-6.7 1.4 5 1.5 10 1.5 15.1 5.6 1.3 10.9 3.4 10.9 3.4 1.6.7 1.7-.6 1.5-1.6z"/></g><g><path class="st5" d="M47.5 53.4c-3-5.4-1.3-12.2.2-14.5.9-1.3 8.9-12.8 22.3-12.8 11.3 0 20 9.5 22.2 12.8 2.4 3.7 2.8 10.1.7 13.4l-1.6 2.5-1.6-2.3c-.1-.1-8.7-12.1-19.5-12.1H70c-10.6 0-18.9 13.1-19 13.2l-1.8 2.8-1.7-3z"/><path class="st1" d="M70 28.2c10.5 0 18.6 9 20.5 11.9s2.4 8.6.7 11.2c0 0-9.1-13-21.1-13h-.2c-11.8 0-20.7 14.1-20.7 14.1-2.5-4.4-1.1-10.4.2-12.4 2.5-3.7 9.8-11.8 20.6-11.8m0-4c-11 0-19.8 7.4-24 13.6-2.2 3.3-3.5 10.9-.3 16.6l3.3 5.9 3.6-5.7c2.2-3.4 9.5-12.2 17.3-12.2h.1c9.7 0 17.8 11.2 17.9 11.3l3.5 4.9 3.2-5.1c2.7-4.3 1.8-11.7-.8-15.6-2.5-3.8-11.6-13.7-23.8-13.7z"/></g><g><path class="st6" d="M90.6 40.1c-1.3-2-5.6-6.9-11.4-9.7.8 3.5 1.5 7.2.7 10.7 6.9 3.8 11.4 10.3 11.4 10.3 1.7-2.7 1.2-8.3-.7-11.3z"/></g></g></svg>