<?xml version="1.0" encoding="utf-8"?>
<!-- Generator: Adobe Illustrator 21.1.0, SVG Export Plug-In . SVG Version: 6.00 Build 0)  -->
<svg version="1.1" id="Layer_1" xmlns="http://www.w3.org/2000/svg" xmlns:xlink="http://www.w3.org/1999/xlink" x="0px" y="0px"
	 viewBox="0 0 150 150" style="enable-background:new 0 0 150 150;" xml:space="preserve">
<style type="text/css">
	.st0{fill:#FFFFFF;}
	.st1{fill:#4AB1E5;}
	.st2{fill:none;stroke:#000000;stroke-width:3;stroke-linecap:round;stroke-miterlimit:10;}
	.st3{fill:#C7C6C8;}
	.st4{fill:#A9A5A4;}
	.st5{fill:#EDEEEF;}
	.st6{fill:#D8D6D6;}
</style>
<g id="head">
	<path class="st0" d="M51.4,56.9c-3.9,0-7.1-2.8-7.1-6.3s3.2-6.3,7.1-6.3c3.9,0,7.1,2.8,7.1,6.3S55.3,56.9,51.4,56.9"/>
	<path id="left_ear" d="M51.4,46.1c2.9,0,5.3,2,5.3,4.5s-2.4,4.5-5.3,4.5c-2.9,0-5.3-2-5.3-4.5S48.4,46.1,51.4,46.1 M51.4,42.6
		c-4.9,0-8.8,3.6-8.8,8s4,8,8.8,8c4.9,0,8.8-3.6,8.8-8S56.2,42.6,51.4,42.6"/>
	<path class="st0" d="M98.6,56.9c-3.9,0-7.1-2.8-7.1-6.3s3.2-6.3,7.1-6.3c3.9,0,7.1,2.8,7.1,6.3S102.5,56.9,98.6,56.9"/>
	<path id="right_ear" d="M98.6,46.1c2.9,0,5.3,2,5.3,4.5s-2.4,4.5-5.3,4.5c-2.9,0-5.3-2-5.3-4.5S95.7,46.1,98.6,46.1 M98.6,42.6
		c-4.9,0-8.8,3.6-8.8,8s4,8,8.8,8c4.9,0,8.8-3.6,8.8-8S103.5,42.6,98.6,42.6"/>
	<path id="jaw_1_" class="st0" d="M74.9,73.8c-13.6,0-24.7-11.1-24.7-24.7s11.1-24.7,24.7-24.7c13.6,0,24.7,11.1,24.7,24.7
		C99.5,62.8,88.5,73.8,74.9,73.8"/>
	<path id="jaw" d="M74.9,26.8c12.3,0,22.3,10,22.3,22.3s-10,22.3-22.3,22.3s-22.3-10-22.3-22.3C52.5,36.8,62.5,26.8,74.9,26.8
		 M74.9,22.2c-14.9,0-27,12.1-27,27c0,14.9,12.1,27,27,27c14.9,0,27-12.1,27-27C101.9,34.3,89.8,22.2,74.9,22.2"/>
	<g id="hair">
		<path class="st1" d="M61.3,35.9c0,0-2.8,22.4-7.7,21.5C48.8,56.6,51.7,46,51.7,46L61.3,35.9z"/>
		<path class="st2" d="M61.3,35.9c0,0-2.8,22.4-7.7,21.5C48.8,56.6,51.7,46,51.7,46L61.3,35.9z"/>
		<path class="st1" d="M61.3,34.5c0,0-1.4,9.1,6.9,9.1S98.7,45,97.8,55.4c1.5-0.2,3-12.3,3-12.3s-23.3-28.7-37.9-9.4"/>
		<path class="st2" d="M61.3,34.5c0,0-1.4,9.1,6.9,9.1S98.7,45,97.8,55.4c1.5-0.2,3-12.3,3-12.3s-23.3-28.7-37.9-9.4"/>
	</g>
	<g id="beanie">
		<path class="st3" d="M96.9,31.8c-0.5,0-1.1-0.1-1.6-0.4c-0.1,0-12.1-4.9-19.8-4.9s-19.8,4.9-19.9,4.9c-0.4,0.2-0.9,0.3-1.3,0.3
			c-0.9,0-1.7-0.4-2.2-1.1c-0.6-0.8-0.9-2-0.6-3.1c0.1-1.2,0.7-8.7,3.8-12.6c3.5-4.3,10.8-9.2,20.2-9.2c9.3,0,17.4,5.4,20.3,9.3
			c2.5,3.4,3.2,8.9,3.6,11.5c0.1,0.5,0.1,0.8,0.2,1c0.2,1,0.3,2.3-0.5,3.3C98.5,31.5,97.8,31.8,96.9,31.8"/>
		<path d="M75.5,7.5c8.9,0,16.4,5.3,18.9,8.6c2.7,3.6,3.1,10.5,3.4,11.8c0.2,1,0.1,2.2-0.8,2.2c-0.2,0-0.5-0.1-0.9-0.2
			c0,0-12.4-5-20.5-5c-8.1,0-20.5,5-20.5,5C54.7,30,54.5,30,54.3,30c-1,0-1.4-1.2-1.1-2.2c0,0,0.4-8,3.4-11.7
			C59.7,12.4,66.6,7.5,75.5,7.5 M75.5,4c-10,0-17.9,5.3-21.6,9.9c-3.4,4.2-4.1,11.7-4.2,13.4c-0.3,1.6,0.1,3.2,1,4.4
			c0.9,1.1,2.2,1.8,3.6,1.8c0.6,0,1.3-0.1,1.9-0.4c0.1-0.1,11.9-4.8,19.2-4.8c7.1,0,18.3,4.4,19.2,4.8c0.8,0.3,1.5,0.5,2.3,0.5
			c1.3,0,2.6-0.6,3.4-1.6c1-1.2,1.3-2.9,0.9-4.8c0-0.2-0.1-0.5-0.1-0.9c-0.4-2.8-1.1-8.6-3.9-12.3C94.3,10.1,85.9,4,75.5,4"/>
		<path class="st4" d="M97.8,27.9c-0.3-1.4-0.7-8.2-3.4-11.8c-1.9-2.5-6.7-6.2-12.8-7.8c1.6,5.9,1.7,11.7,1.8,17.6
			c6.5,1.5,12.7,4,12.7,4C97.9,30.7,98,29.2,97.8,27.9"/>
		<path class="st5" d="M49.2,45.5c-3.4-6.1-1.5-13.7,0.2-16.3c1-1.5,10.2-14.6,25.6-14.6c12.9,0,22.9,10.9,25.4,14.7
			c2.7,4.1,3.1,11.4,0.9,15l-1.4,2.2l-1.5-2.1C98.2,44.2,88,29.9,75.1,29.9h-0.3c-12.6,0-22.6,15.5-22.7,15.7l-1.6,2.5L49.2,45.5z"
			/>
		<path d="M75,16.3c12.2,0,21.7,10.4,24,13.9s2.8,10,0.8,13.1c0,0-10.7-15.2-24.7-15.2c0,0-0.1,0-0.1,0c0,0-0.1,0-0.1,0
			c-13.8,0-24.2,16.5-24.2,16.5c-2.9-5.2-1.3-12.2,0.2-14.5C53.8,25.8,62.5,16.3,75,16.3 M75,12.8c-16.2,0-26,13.8-27,15.4
			c-2.3,3.5-3.8,12-0.3,18.1l2.9,5.1l3.1-5c0.1-0.1,9.6-14.8,21.2-14.8l0.1,0l0.2,0c12,0,21.7,13.5,21.8,13.7l3,4.3l2.8-4.5
			c2.9-4.6,1.9-12.7-0.9-16.9C99,24,88.7,12.8,75,12.8"/>
		<path class="st6" d="M98.9,30.2c-1.6-2.4-6.5-8-13.4-11.3c0.9,4.1,1.8,8.4,0.9,12.5c8,4.4,13.3,12,13.3,12
			C101.7,40.2,101.2,33.7,98.9,30.2"/>
	</g>
</g>
</svg>
