<svg enable-background="new 0 0 150 150" viewBox="0 0 150 150" xmlns="http://www.w3.org/2000/svg"><path d="m51.4 56.9c-3.9 0-7.1-2.8-7.1-6.3s3.2-6.3 7.1-6.3 7.1 2.8 7.1 6.3-3.2 6.3-7.1 6.3" fill="#fff"/><path d="m51.4 46.1c2.9 0 5.3 2 5.3 4.5s-2.4 4.5-5.3 4.5-5.3-2-5.3-4.5 2.3-4.5 5.3-4.5m0-3.5c-4.9 0-8.8 3.6-8.8 8s4 8 8.8 8c4.9 0 8.8-3.6 8.8-8s-4-8-8.8-8"/><path d="m98.6 56.9c-3.9 0-7.1-2.8-7.1-6.3s3.2-6.3 7.1-6.3 7.1 2.8 7.1 6.3-3.2 6.3-7.1 6.3" fill="#fff"/><path d="m98.6 46.1c2.9 0 5.3 2 5.3 4.5s-2.4 4.5-5.3 4.5-5.3-2-5.3-4.5 2.4-4.5 5.3-4.5m0-3.5c-4.9 0-8.8 3.6-8.8 8s4 8 8.8 8c4.9 0 8.8-3.6 8.8-8s-3.9-8-8.8-8"/><path d="m74.9 73.8c-13.6 0-24.7-11.1-24.7-24.7s11.1-24.7 24.7-24.7 24.7 11.1 24.7 24.7c-.1 13.7-11.1 24.7-24.7 24.7" fill="#fff"/><path d="m74.9 26.8c12.3 0 22.3 10 22.3 22.3s-10 22.3-22.3 22.3-22.3-10-22.3-22.3c-.1-12.3 9.9-22.3 22.3-22.3m0-4.6c-14.9 0-27 12.1-27 27s12.1 27 27 27 27-12.1 27-27-12.1-27-27-27"/><path d="m61.3 35.9s-2.8 22.4-7.7 21.5c-4.8-.8-1.9-11.4-1.9-11.4z" fill="#4ab1e5"/><path d="m61.3 35.9s-2.8 22.4-7.7 21.5c-4.8-.8-1.9-11.4-1.9-11.4z" fill="none" stroke="#000" stroke-linecap="round" stroke-miterlimit="10" stroke-width="3"/><path d="m61.3 34.5s-1.4 9.1 6.9 9.1 30.5 1.4 29.6 11.8c1.5-.2 3-12.3 3-12.3s-23.3-28.7-37.9-9.4" fill="#4ab1e5"/><path d="m61.3 34.5s-1.4 9.1 6.9 9.1 30.5 1.4 29.6 11.8c1.5-.2 3-12.3 3-12.3s-23.3-28.7-37.9-9.4" fill="none" stroke="#000" stroke-linecap="round" stroke-miterlimit="10" stroke-width="3"/><path d="m96.9 31.8c-.5 0-1.1-.1-1.6-.4-.1 0-12.1-4.9-19.8-4.9s-19.8 4.9-19.9 4.9c-.4.2-.9.3-1.3.3-.9 0-1.7-.4-2.2-1.1-.6-.8-.9-2-.6-3.1.1-1.2.7-8.7 3.8-12.6 3.5-4.3 10.8-9.2 20.2-9.2 9.3 0 17.4 5.4 20.3 9.3 2.5 3.4 3.2 8.9 3.6 11.5.1.5.1.8.2 1 .2 1 .3 2.3-.5 3.3-.6.7-1.3 1-2.2 1" fill="#c7c6c8"/><path d="m75.5 7.5c8.9 0 16.4 5.3 18.9 8.6 2.7 3.6 3.1 10.5 3.4 11.8.2 1 .1 2.2-.8 2.2-.2 0-.5-.1-.9-.2 0 0-12.4-5-20.5-5s-20.5 5-20.5 5c-.4.1-.6.1-.8.1-1 0-1.4-1.2-1.1-2.2 0 0 .4-8 3.4-11.7 3.1-3.7 10-8.6 18.9-8.6m0-3.5c-10 0-17.9 5.3-21.6 9.9-3.4 4.2-4.1 11.7-4.2 13.4-.3 1.6.1 3.2 1 4.4.9 1.1 2.2 1.8 3.6 1.8.6 0 1.3-.1 1.9-.4.1-.1 11.9-4.8 19.2-4.8 7.1 0 18.3 4.4 19.2 4.8.8.3 1.5.5 2.3.5 1.3 0 2.6-.6 3.4-1.6 1-1.2 1.3-2.9.9-4.8 0-.2-.1-.5-.1-.9-.4-2.8-1.1-8.6-3.9-12.3-2.9-3.9-11.3-10-21.7-10"/><path d="m97.8 27.9c-.3-1.4-.7-8.2-3.4-11.8-1.9-2.5-6.7-6.2-12.8-7.8 1.6 5.9 1.7 11.7 1.8 17.6 6.5 1.5 12.7 4 12.7 4 1.8.8 1.9-.7 1.7-2" fill="#a9a5a4"/><path d="m49.2 45.5c-3.4-6.1-1.5-13.7.2-16.3 1-1.5 10.2-14.6 25.6-14.6 12.9 0 22.9 10.9 25.4 14.7 2.7 4.1 3.1 11.4.9 15l-1.4 2.2-1.5-2.1c-.2-.2-10.4-14.5-23.3-14.5h-.3c-12.6 0-22.6 15.5-22.7 15.7l-1.6 2.5z" fill="#edeeef"/><path d="m75 16.3c12.2 0 21.7 10.4 24 13.9s2.8 10 .8 13.1c0 0-10.7-15.2-24.7-15.2h-.1-.1c-13.8 0-24.2 16.5-24.2 16.5-2.9-5.2-1.3-12.2.2-14.5 2.9-4.3 11.6-13.8 24.1-13.8m0-3.5c-16.2 0-26 13.8-27 15.4-2.3 3.5-3.8 12-.3 18.1l2.9 5.1 3.1-5c.1-.1 9.6-14.8 21.2-14.8h.1.2c12 0 21.7 13.5 21.8 13.7l3 4.3 2.8-4.5c2.9-4.6 1.9-12.7-.9-16.9-2.9-4.2-13.2-15.4-26.9-15.4"/><path d="m98.9 30.2c-1.6-2.4-6.5-8-13.4-11.3.9 4.1 1.8 8.4.9 12.5 8 4.4 13.3 12 13.3 12 2-3.2 1.5-9.7-.8-13.2" fill="#d8d6d6"/></svg>