<?xml version="1.0" encoding="utf-8"?>
<!-- Generator: Adobe Illustrator 22.1.0, SVG Export Plug-In . SVG Version: 6.00 Build 0)  -->
<svg version="1.1" id="Layer_1" xmlns="http://www.w3.org/2000/svg" xmlns:xlink="http://www.w3.org/1999/xlink" x="0px" y="0px"
	 width="400px" height="400px" viewBox="0 0 400 400" style="enable-background:new 0 0 400 400;" xml:space="preserve">
<style type="text/css">
	.st0{fill:#FFFFFF;}
	.st1{fill:#ECB32D;}
	.st2{fill:#63C1A0;}
	.st3{fill:#E01A59;}
	.st4{fill:#331433;}
	.st5{fill:#D62027;}
	.st6{fill:#89D3DF;}
	.st7{fill:#258B74;}
	.st8{fill:#819C3C;}
</style>
<circle class="st0" cx="200" cy="200" r="110"/>
<path class="st1" d="M220.5,138.4c-2.3-6.8-9.5-10.5-16.3-8.3c-6.8,2.3-10.5,9.5-8.3,16.3l33.5,102.9c2.3,6.3,9.2,9.9,15.7,8
	c6.9-2,11.1-9.3,8.8-16C253.9,241.1,220.5,138.4,220.5,138.4L220.5,138.4z"/>
<path class="st2" d="M168.7,155.2c-2.3-6.8-9.5-10.5-16.3-8.3c-6.8,2.3-10.5,9.5-8.3,16.3L177.5,266c2.3,6.3,9.2,9.9,15.7,8
	c6.9-2,11.1-9.3,8.8-16C202,257.8,168.7,155.2,168.7,155.2L168.7,155.2z"/>
<path class="st3" d="M262.7,223.5c6.8-2.3,10.5-9.5,8.3-16.3c-2.3-6.8-9.5-10.5-16.3-8.3l-103,33.6c-6.3,2.3-9.9,9.2-8,15.7
	c2,6.9,9.3,11.1,16,8.8C159.9,257,262.7,223.5,262.7,223.5L262.7,223.5z"/>
<path class="st4" d="M173.1,252.7c6.7-2.1,15.4-5,24.7-8c-2.1-6.7-5-15.4-8-24.7l-24.7,8L173.1,252.7z"/>
<path class="st5" d="M225,235.8c9.3-3,18-5.8,24.7-8c-2.1-6.7-5-15.4-8-24.7l-24.7,8L225,235.8z"/>
<path class="st6" d="M245.8,171.7c6.8-2.3,10.5-9.5,8.3-16.3c-2.3-6.8-9.5-10.5-16.3-8.3l-102.9,33.5c-6.3,2.3-9.9,9.2-8,15.7
	c2,6.9,9.3,11.1,16,8.8C143.1,205.1,245.8,171.7,245.8,171.7L245.8,171.7z"/>
<path class="st7" d="M156.3,200.8c6.7-2.1,15.4-5,24.7-8c-3-9.3-5.8-18-8-24.7l-24.7,8L156.3,200.8z"/>
<path class="st8" d="M208.1,184c9.3-3,18-5.8,24.7-8c-3-9.3-5.8-18-8-24.7l-24.7,8L208.1,184z"/>
</svg>
