<?xml version="1.0" encoding="utf-8"?>
<!-- Generator: Adobe Illustrator 22.1.0, SVG Export Plug-In . SVG Version: 6.00 Build 0)  -->
<svg version="1.1" id="Layer_1" xmlns="http://www.w3.org/2000/svg" xmlns:xlink="http://www.w3.org/1999/xlink" x="0px" y="0px"
	 width="2500px" height="1070px" viewBox="0 0 2500 1070" style="enable-background:new 0 0 2500 1070;" xml:space="preserve">
<style type="text/css">
	.st0{fill:#141414;}
	.st1{fill:#262626;}
	.st2{fill:#333333;}
	.st3{fill:#454545;}
	.st4{fill:#545454;}
	.st5{fill:#636363;}
	.st6{fill:#737373;}
	.st7{fill:#828282;}
	.st8{fill:#8F8F8F;}
	.st9{fill:#A1A1A1;}
	.st10{fill:#B3B3B3;}
	.st11{fill:#BFBFBF;}
	.st12{fill:#FFFFFF;}
	.st13{fill:#ECB32D;}
	.st14{fill:#63C1A0;}
	.st15{fill:#E01A59;}
	.st16{fill:#331433;}
	.st17{fill:#D62027;}
	.st18{fill:#89D3DF;}
	.st19{fill:#258B74;}
	.st20{fill:#819C3C;}
</style>
<path class="st0" d="M3026.3,901.6C2902.1,352.4,2760.8-494,929.5-494C-291.3-494-882-288.3-842.5,123.1
	c40.3,360.3,194.1,595.4,460.5,705.6v267.1H818.4c287.3,67,569.4,153.5,792.4,282.1C2165.6,1698,3150.4,1450.6,3026.3,901.6
	L3026.3,901.6z"/>
<path class="st1" d="M-541.1,64.5c19.2,344.4,161.9,560.2,428,647.5C286,843.2,1100.1,895.6,1577.1,1180.2
	c477,284.4,1365.2,64.6,1282.5-423.8c-82.7-488.2-165.7-1240.8-1793.8-1240.8C-19.6-484.3-555.4-301.4-541.1,64.5L-541.1,64.5z"/>
<path class="st2" d="M-472.6,43c0.4,324.8,124,528.6,370.5,610.9C267.7,777.7,1033,827.2,1468.5,1095.6
	c435.3,268.4,1284.6,60.8,1231.7-399.8c-53-460.6-92.8-1170.7-1628.7-1170.7C47.3-474.6-467.4-302-472.6,43L-472.6,43z"/>
<path class="st3" d="M-402.8,21.8C-418.1,327.2-312,518.6-84.2,596c341.7,116.2,1058.7,162.7,1454.7,415.1
	c396.2,252.2,1204.6,57.3,1177.2-375.8c-27.4-433-29.9-1100.4-1473.8-1100.4C111.3-464.9-380.9-302.9-402.8,21.8L-402.8,21.8z"/>
<path class="st4" d="M-331.4,0.3c-28.8,285.9,61.5,465,270.9,537.7c314.3,108.8,983.3,152.4,1342.2,388.6s1125,53.7,1119.7-351.8
	c-5.3-405.2,23.8-1030-1327.9-1030C172.6-455.3-295.8-303.5-331.4,0.3L-331.4,0.3z"/>
<path class="st5" d="M-258.8-21c-40,266.3,36.2,433.2,228.2,500.8c288,101.5,909.4,142.1,1233.2,362.1s1045.8,49.9,1059.5-327.8
	c13.5-377.7,68.8-959.9-1190.7-959.9C231.5-445.6-211.8-304.1-258.8-21L-258.8-21z"/>
<path class="st6" d="M-184.9-42.4C-233.5,204.5-170.4,359.3,4.6,422c262.5,94,836.6,131.5,1127.1,335.5s967.1,46.3,996.4-303.8
	c29.1-350.1,105.9-889.6-1061.4-889.6C288.2-435.9-128.9-304.7-184.9-42.4L-184.9-42.4z"/>
<path class="st7" d="M-109.9-63.9c-55.4,227.4-3.8,369.9,154.7,427.8c237.7,86.5,765,121.3,1023.7,309s888.8,42.7,930.7-279.8
	c41.7-322.5,135.6-819.3-939.7-819.3C342.7-426.2-47.2-305.4-109.9-63.9L-109.9-63.9z"/>
<path class="st8" d="M-33.7-85.2c-60,208-18.7,338.3,123.8,391.1c213.7,79.2,694.3,110.9,923.3,282.5
	c228.8,171.8,810.9,38.9,862.5-255.8s157.9-749.2-825.2-749.2C395.1-416.5,33.6-306-33.7-85.2L-33.7-85.2z"/>
<path class="st9" d="M43.5-106.7c-62.9,188.4-30.7,306.5,96.2,354.5C330.3,319.6,764.5,348.3,965,504
	c200.4,155.6,733.2,35.4,792-231.8s173.5-678.9-717.4-678.9C445.6-406.8,113.4-306.9,43.5-106.7L43.5-106.7z"/>
<path class="st10" d="M121.6-127.9C57.8,40.9,82.1,146.8,194.1,189.7c168,64.4,556.2,90.1,729.6,229.7s656,31.6,719.1-207.8
	C1706-27.9,1825.1-397,1026.4-397C494-397.2,192.4-307.5,121.6-127.9L121.6-127.9z"/>
<path class="st11" d="M201-149.4c-62.9,149.5-45.7,243.1,51.6,281c146.1,56.8,488.6,79.6,636.6,203.1
	c148.2,123.4,579.1,28,644.2-183.8c65.3-212,184.8-538.5-521.7-538.5C540.8-387.5,270.5-308.1,201-149.4L201-149.4z"/>
<circle class="st12" cx="1250" cy="535" r="377"/>
<path class="st13" d="M1320.3,323.9c-7.8-23.3-32.7-35.9-55.9-28.6c-23.3,7.8-35.9,32.7-28.6,55.9l114.7,352.6
	c7.8,21.6,31.4,33.9,53.9,27.3c23.7-6.9,38-31.8,30.2-54.7C1434.6,675.7,1320.3,323.9,1320.3,323.9L1320.3,323.9z"/>
<path class="st14" d="M1142.7,381.4c-7.8-23.3-32.7-35.9-55.9-28.6c-23.3,7.8-35.9,32.7-28.6,55.9l114.7,352.6
	c7.8,21.6,31.4,33.9,53.9,27.3c23.7-6.9,38-31.8,30.2-54.7C1257,733.2,1142.7,381.4,1142.7,381.4L1142.7,381.4z"/>
<path class="st15" d="M1464.8,615.7c23.3-7.8,35.9-32.7,28.6-55.9c-7.8-23.3-32.7-35.9-55.9-28.6l-353.1,115.1
	c-21.6,7.8-33.9,31.4-27.3,53.9c6.9,23.7,31.8,38,54.7,30.2C1112.5,730.4,1464.8,615.7,1464.8,615.7L1464.8,615.7z"/>
<path class="st16" d="M1157.8,715.7c22.9-7.3,52.7-17.1,84.5-27.3c-7.3-22.9-17.1-52.7-27.3-84.5l-84.5,27.3L1157.8,715.7z"/>
<path class="st17" d="M1335.8,657.7c31.8-10.2,61.6-20,84.5-27.3c-7.3-22.9-17.1-52.7-27.3-84.5l-84.5,27.3L1335.8,657.7z"/>
<path class="st18" d="M1406.8,438.1c23.3-7.8,35.9-32.7,28.6-55.9c-7.8-23.3-32.7-35.9-55.9-28.6l-352.6,114.7
	c-21.6,7.8-33.9,31.4-27.3,53.9c6.9,23.7,31.8,38,54.7,30.2C1055,552.4,1406.8,438.1,1406.8,438.1L1406.8,438.1z"/>
<path class="st19" d="M1100.3,537.7c22.9-7.3,52.7-17.1,84.5-27.3c-10.2-31.8-20-61.6-27.3-84.5l-84.5,27.3L1100.3,537.7z"/>
<path class="st20" d="M1277.8,480.2c31.8-10.2,61.6-20,84.5-27.3c-10.2-31.8-20-61.6-27.3-84.5l-84.5,27.3L1277.8,480.2z"/>
</svg>
