<svg enable-background="new 0 0 2500 1070" height="1070" viewBox="0 0 2500 1070" width="2500" xmlns="http://www.w3.org/2000/svg" xmlns:xlink="http://www.w3.org/1999/xlink"><path d="m3026.3 901.6c-124.2-549.2-265.5-1395.6-2096.8-1395.6-1220.8 0-1811.5 205.7-1772 617.1 40.3 360.3 194.1 595.4 460.5 705.6v267.1h1200.4c287.3 67 569.4 153.5 792.4 282.1 554.8 320.1 1539.6 72.7 1415.5-476.3z" fill="#141414"/><path d="m-541.1 64.5c19.2 344.4 161.9 560.2 428 647.5 399.1 131.2 1213.2 183.6 1690.2 468.2 477 284.4 1365.2 64.6 1282.5-423.8-82.7-488.2-165.7-1240.8-1793.8-1240.8-1085.4.1-1621.2 183-1606.9 548.9z" fill="#262626"/><path d="m-472.6 43c.4 324.8 124 528.6 370.5 610.9 369.8 123.8 1135.1 173.3 1570.6 441.7 435.3 268.4 1284.6 60.8 1231.7-399.8-53-460.6-92.8-1170.7-1628.7-1170.7-1024.2.3-1538.9 172.9-1544.1 517.9z" fill="#333"/><path d="m-402.8 21.8c-15.3 305.4 90.8 496.8 318.6 574.2 341.7 116.2 1058.7 162.7 1454.7 415.1 396.2 252.2 1204.6 57.3 1177.2-375.8-27.4-433-29.9-1100.4-1473.8-1100.4-962.6.2-1454.8 162.2-1476.7 486.9z" fill="#454545"/><path d="m-331.4.3c-28.8 285.9 61.5 465 270.9 537.7 314.3 108.8 983.3 152.4 1342.2 388.6s1125 53.7 1119.7-351.8c-5.3-405.2 23.8-1030-1327.9-1030-900.9-.1-1369.3 151.7-1404.9 455.5z" fill="#545454"/><path d="m-258.8-21c-40 266.3 36.2 433.2 228.2 500.8 288 101.5 909.4 142.1 1233.2 362.1s1045.8 49.9 1059.5-327.8c13.5-377.7 68.8-959.9-1190.7-959.9-839.9.2-1283.2 141.7-1330.2 424.8z" fill="#636363"/><path d="m-184.9-42.4c-48.6 246.9 14.5 401.7 189.5 464.4 262.5 94 836.6 131.5 1127.1 335.5s967.1 46.3 996.4-303.8c29.1-350.1 105.9-889.6-1061.4-889.6-778.5 0-1195.6 131.2-1251.6 393.5z" fill="#737373"/><path d="m-109.9-63.9c-55.4 227.4-3.8 369.9 154.7 427.8 237.7 86.5 765 121.3 1023.7 309s888.8 42.7 930.7-279.8c41.7-322.5 135.6-819.3-939.7-819.3-716.8 0-1106.7 120.8-1169.4 362.3z" fill="#828282"/><path d="m-33.7-85.2c-60 208-18.7 338.3 123.8 391.1 213.7 79.2 694.3 110.9 923.3 282.5 228.8 171.8 810.9 38.9 862.5-255.8s157.9-749.2-825.2-749.2c-655.6.1-1017.1 110.6-1084.4 331.4z" fill="#8f8f8f"/><path d="m43.5-106.7c-62.9 188.4-30.7 306.5 96.2 354.5 190.6 71.8 624.8 100.5 825.3 256.2 200.4 155.6 733.2 35.4 792-231.8s173.5-678.9-717.4-678.9c-594-.1-926.2 99.8-996.1 300z" fill="#a1a1a1"/><path d="m121.6-127.9c-63.8 168.8-39.5 274.7 72.5 317.6 168 64.4 556.2 90.1 729.6 229.7s656 31.6 719.1-207.8c63.2-239.5 182.3-608.6-616.4-608.6-532.4-.2-834 89.5-904.8 269.1z" fill="#b3b3b3"/><path d="m201-149.4c-62.9 149.5-45.7 243.1 51.6 281 146.1 56.8 488.6 79.6 636.6 203.1 148.2 123.4 579.1 28 644.2-183.8 65.3-212 184.8-538.5-521.7-538.5-470.9.1-741.2 79.5-810.7 238.2z" fill="#bfbfbf"/><image height="814" opacity=".2" overflow="visible" transform="translate(843 128)" width="814" xlink:href="FC20DBC4F1244A19.png"/><circle cx="1250" cy="535" fill="#fff" r="377"/><path d="m1320.3 323.9c-7.8-23.3-32.7-35.9-55.9-28.6-23.3 7.8-35.9 32.7-28.6 55.9l114.7 352.6c7.8 21.6 31.4 33.9 53.9 27.3 23.7-6.9 38-31.8 30.2-54.7 0-.7-114.3-352.5-114.3-352.5z" fill="#ecb32d"/><path d="m1142.7 381.4c-7.8-23.3-32.7-35.9-55.9-28.6-23.3 7.8-35.9 32.7-28.6 55.9l114.7 352.6c7.8 21.6 31.4 33.9 53.9 27.3 23.7-6.9 38-31.8 30.2-54.7 0-.7-114.3-352.5-114.3-352.5z" fill="#63c1a0"/><path d="m1464.8 615.7c23.3-7.8 35.9-32.7 28.6-55.9-7.8-23.3-32.7-35.9-55.9-28.6l-353.1 115.1c-21.6 7.8-33.9 31.4-27.3 53.9 6.9 23.7 31.8 38 54.7 30.2.7 0 353-114.7 353-114.7z" fill="#e01a59"/><path d="m1157.8 715.7c22.9-7.3 52.7-17.1 84.5-27.3-7.3-22.9-17.1-52.7-27.3-84.5l-84.5 27.3z" fill="#331433"/><path d="m1335.8 657.7c31.8-10.2 61.6-20 84.5-27.3-7.3-22.9-17.1-52.7-27.3-84.5l-84.5 27.3z" fill="#d62027"/><path d="m1406.8 438.1c23.3-7.8 35.9-32.7 28.6-55.9-7.8-23.3-32.7-35.9-55.9-28.6l-352.6 114.7c-21.6 7.8-33.9 31.4-27.3 53.9 6.9 23.7 31.8 38 54.7 30.2.7 0 352.5-114.3 352.5-114.3z" fill="#89d3df"/><path d="m1100.3 537.7c22.9-7.3 52.7-17.1 84.5-27.3-10.2-31.8-20-61.6-27.3-84.5l-84.5 27.3z" fill="#258b74"/><path d="m1277.8 480.2c31.8-10.2 61.6-20 84.5-27.3-10.2-31.8-20-61.6-27.3-84.5l-84.5 27.3z" fill="#819c3c"/></svg>